<?xml version="1.0" encoding="UTF-8"?>
<svg version="1.1" xmlns="http://www.w3.org/2000/svg" width="1254" height="1254" viewBox="220 185 820 820">
<path d="M0 0 C8.22754807 -0.09462257 16.44950223 -0.05558418 24.67675781 0.04589844 C25.67755371 0.05314941 26.67834961 0.06040039 27.70947266 0.06787109 C40.87989511 0.19937472 53.72713585 1.56499109 66.73925781 3.48339844 C67.48258362 3.5926767 68.22590942 3.70195496 68.99176025 3.81454468 C76.02005209 4.86119752 82.84756517 6.02589405 89.67675781 8.04589844 C91.44260923 8.34751102 93.21389441 8.61905315 94.98925781 8.85839844 C124.56745385 13.64794563 153.92030442 25.89616849 180.67675781 39.04589844 C181.65938599 39.52675903 181.65938599 39.52675903 182.66186523 40.01733398 C194.06220297 45.64899287 205.06139334 52.05241976 215.67675781 59.04589844 C216.81329813 59.77924796 217.95002827 60.51230336 219.08691406 61.24511719 C232.1389008 69.72708056 244.48020819 79.1357224 256.27124023 89.29467773 C259.30909532 91.91105157 262.40538892 94.39325118 265.61425781 96.79589844 C269.06655807 99.42320047 271.80515773 102.25748352 274.48535156 105.66308594 C275.64791961 107.19218869 275.64791961 107.19218869 277.67675781 108.04589844 C277.67675781 108.70589844 277.67675781 109.36589844 277.67675781 110.04589844 C278.54300781 110.41714844 278.54300781 110.41714844 279.42675781 110.79589844 C282.00615761 112.22889832 283.73797373 113.8301452 285.67675781 116.04589844 C285.67675781 116.70589844 285.67675781 117.36589844 285.67675781 118.04589844 C286.33675781 118.04589844 286.99675781 118.04589844 287.67675781 118.04589844 C289.05175781 119.40917969 289.05175781 119.40917969 290.67675781 121.35839844 C293.53542884 124.73198536 296.4759719 127.99708192 299.48925781 131.23339844 C304.95333783 137.22143133 309.818434 143.56813335 314.67675781 150.04589844 C315.32386719 150.88121094 315.97097656 151.71652344 316.63769531 152.57714844 C317.18683594 153.28871094 317.73597656 154.00027344 318.30175781 154.73339844 C318.76839844 155.33539063 319.23503906 155.93738281 319.71582031 156.55761719 C320.67675781 158.04589844 320.67675781 158.04589844 320.67675781 160.04589844 C321.33675781 160.04589844 321.99675781 160.04589844 322.67675781 160.04589844 C323.91338644 161.79001145 325.06777916 163.59296329 326.17675781 165.42089844 C328.61892288 169.4753299 328.61892288 169.4753299 331.67675781 173.04589844 C331.67675781 174.03589844 331.67675781 175.02589844 331.67675781 176.04589844 C332.33675781 176.04589844 332.99675781 176.04589844 333.67675781 176.04589844 C334.14984375 176.8825 334.62292969 177.71910156 335.11035156 178.58105469 C335.77800219 179.75701661 336.44600071 180.93278105 337.11425781 182.10839844 C337.47479248 182.74398682 337.83532715 183.3795752 338.20678711 184.03442383 C340.02764798 187.22651642 341.8730256 190.39304458 343.82519531 193.50683594 C352.93756419 208.0878676 360.24445908 223.73993152 366.41503906 239.77636719 C367.62064436 242.90048989 368.91537032 245.97040596 370.23925781 249.04589844 C375.90548026 262.63400513 379.78714052 276.87015448 383.67675781 291.04589844 C383.86625 291.73232422 384.05574219 292.41875 384.25097656 293.12597656 C390.60924129 316.43164614 393.84252051 340.01567559 395.67675781 364.04589844 C395.74878418 364.98578613 395.82081055 365.92567383 395.89501953 366.89404297 C397.36732313 387.13528845 396.8995173 407.31621477 395.13256836 427.51977539 C394.86172965 430.63750107 394.61117763 433.75642848 394.36230469 436.87597656 C393.57257115 446.40322768 392.61675877 455.64122368 390.38574219 464.94970703 C389.66177278 468.11133925 389.1736388 471.244234 388.72753906 474.45605469 C387.72751022 481.25439701 386.12417287 487.86279109 384.38256836 494.50219727 C383.86619095 496.47600918 383.3636431 498.45298565 382.86230469 500.43066406 C380.89666355 508.0722941 378.55712942 515.50576981 375.82885742 522.91503906 C374.86234247 525.54156752 373.94783677 528.17234728 373.07519531 530.83105469 C369.64595615 541.24141677 366.15164501 551.77885588 360.98535156 561.46777344 C358.92908905 565.5189175 357.18937069 569.70921057 355.43847656 573.90014648 C346.33653746 595.23823408 332.82925508 615.63886971 319.03466797 634.21240234 C317.98383677 635.63127008 316.93751516 637.05347828 315.89306641 638.47705078 C313.86936653 641.23419881 311.83637207 643.9842972 309.80175781 646.73339844 C309.1345874 647.64412109 308.46741699 648.55484375 307.7800293 649.49316406 C307.15040283 650.33943359 306.52077637 651.18570313 305.87207031 652.05761719 C305.02153076 653.20943481 305.02153076 653.20943481 304.15380859 654.38452148 C303.42266846 655.20690308 303.42266846 655.20690308 302.67675781 656.04589844 C302.01675781 656.04589844 301.35675781 656.04589844 300.67675781 656.04589844 C300.43570313 656.60535156 300.19464844 657.16480469 299.94628906 657.74121094 C298.41150353 660.52743698 296.52586487 662.58854259 294.36425781 664.92089844 C291.82705264 667.68102099 289.32203254 670.42337141 286.98925781 673.35839844 C284.45865793 676.29936587 281.65375431 678.56506802 278.67675781 681.04589844 C277.463423 682.51467216 276.25080135 683.98415473 275.05566406 685.46777344 C272.25559269 688.6723877 268.91619748 691.30052425 265.67675781 694.04589844 C264.61844597 694.96529836 263.56123458 695.8859659 262.50488281 696.80761719 C254.77935008 703.52651606 246.87829684 709.91819202 238.67675781 716.04589844 C237.77570312 716.72136719 236.87464844 717.39683594 235.94628906 718.09277344 C225.49466209 725.81184801 214.71419813 733.03876113 203.42285156 739.47167969 C200.88824241 740.92466331 198.40877107 742.44298089 195.92675781 743.98339844 C189.08474298 748.11991067 181.85202 751.53370819 174.67675781 755.04589844 C174.01675781 755.37589844 173.35675781 755.70589844 172.67675781 756.04589844 C177.11598375 762.21469293 181.59411293 768.30268679 186.42675781 774.17089844 C187.67675781 776.04589844 187.67675781 776.04589844 187.67675781 779.04589844 C180.07120382 778.59851291 173.64967025 776.00080611 166.67675781 773.04589844 C165.73703125 772.66304687 164.79730469 772.28019531 163.82910156 771.88574219 C158.38500712 769.46340756 155.19546978 766.92236994 151.93066406 761.91308594 C150.72992712 759.98679214 150.72992712 759.98679214 149.01660156 758.42871094 C147.67675781 757.04589844 147.67675781 757.04589844 147.67675781 755.04589844 C146.68675781 754.71589844 145.69675781 754.38589844 144.67675781 754.04589844 C142.84472656 752.04199219 142.84472656 752.04199219 140.86425781 749.48339844 C140.1565625 748.58234375 139.44886719 747.68128906 138.71972656 746.75292969 C137.47928707 745.10928806 136.26532841 743.44457854 135.10253906 741.74511719 C129.33985294 733.36159299 122.21530471 731.68384821 112.57568359 729.52734375 C104.88922708 727.77914014 98.64156062 724.62303847 92.23925781 720.10839844 C91.21360718 719.39466064 91.21360718 719.39466064 90.16723633 718.66650391 C83.7686023 714.18066779 77.51892759 709.50015407 71.29785156 704.77246094 C70.68925293 704.32161133 70.0806543 703.87076172 69.45361328 703.40625 C67.67675781 702.04589844 67.67675781 702.04589844 66.04443359 700.58398438 C61.6944949 696.90932557 58.29137783 696.51866904 52.66699219 696.78955078 C51.68021484 696.87414551 50.6934375 696.95874023 49.67675781 697.04589844 C48.68482422 697.1292041 47.69289063 697.21250977 46.67089844 697.29833984 C43.41717766 697.61111885 40.17325721 697.97808956 36.92675781 698.35839844 C29.02384675 699.25194769 21.124099 700.11746388 13.20410156 700.84277344 C12.5052182 700.90736252 11.80633484 700.9719516 11.08627319 701.03849792 C7.68961677 701.35177458 4.29267261 701.65835063 0.89453125 701.95532227 C-11.90297806 703.1173843 -11.90297806 703.1173843 -22.44824219 710.04589844 C-23.58153057 711.04441293 -24.71700827 712.04044727 -25.85449219 713.03417969 C-26.428125 713.53771973 -27.00175781 714.04125977 -27.59277344 714.56005859 C-31.3404037 717.77790252 -35.28571291 720.74011877 -39.23339844 723.70605469 C-41.14605229 725.15444869 -43.03480744 726.63579146 -44.88183594 728.16699219 C-52.68645887 734.41312567 -61.41609351 737.57873695 -70.67822266 741.04589844 C-74.91873922 742.64910647 -79.11879451 744.35087049 -83.32324219 746.04589844 C-84.98452098 746.71040996 -86.64597986 747.37447146 -88.30761719 748.03808594 C-91.6949447 749.3927521 -95.08009242 750.75269594 -98.46386719 752.11621094 C-106.80830004 755.47432666 -115.16422596 758.77535147 -123.59985352 761.89794922 C-128.01906804 763.5389096 -132.3943545 765.26964318 -136.76074219 767.04589844 C-143.00807938 769.57141773 -149.31516033 771.85961546 -155.69018555 774.04199219 C-158.41334666 774.98072265 -161.05420592 775.90886808 -163.62402344 777.21777344 C-165.32324219 778.04589844 -165.32324219 778.04589844 -168.32324219 778.04589844 C-166.98196552 773.84081484 -165.39850952 771.92625861 -161.88574219 769.29589844 C-160.98597656 768.60625 -160.08621094 767.91660156 -159.15917969 767.20605469 C-158.22332031 766.49320313 -157.28746094 765.78035156 -156.32324219 765.04589844 C-154.54553125 763.61691251 -152.77475101 762.1792649 -151.01074219 760.73339844 C-150.09035156 759.97929688 -149.16996094 759.22519531 -148.22167969 758.44824219 C-145.71111462 756.367383 -143.21770631 754.26822957 -140.73413086 752.15527344 C-138.53810451 750.28762799 -136.335844 748.42746144 -134.13134766 746.56982422 C-132.87379527 745.50992116 -131.61771743 744.44826713 -130.36279297 743.38525391 C-122.3688766 736.63769053 -114.71947284 730.74401377 -105.32324219 726.04589844 C-103.64720545 725.06168372 -101.98043848 724.0615156 -100.32324219 723.04589844 C-95.97323157 720.40285401 -91.53398031 717.96762194 -87.05371094 715.55371094 C-84.37123335 714.07239999 -81.75213073 712.51557323 -79.13574219 710.92089844 C-67.79199219 704.04589844 -67.79199219 704.04589844 -64.32324219 704.04589844 C-64.319375 702.76005859 -64.319375 702.76005859 -64.31542969 701.44824219 C-64.09060575 694.80094791 -63.79882576 690.21130768 -59.08886719 685.31542969 C-55.19721181 682.51722615 -51.41059106 681.78846785 -46.69824219 681.48339844 C-43.61411174 681.27638146 -41.27160855 681.02868722 -38.32324219 680.04589844 C-38.94652185 674.7480213 -41.59697602 671.39008943 -44.69824219 667.17871094 C-48.32324219 662.21493253 -48.32324219 662.21493253 -48.32324219 660.04589844 C-48.98324219 660.04589844 -49.64324219 660.04589844 -50.32324219 660.04589844 C-50.65324219 658.72589844 -50.98324219 657.40589844 -51.32324219 656.04589844 C-51.98324219 656.04589844 -52.64324219 656.04589844 -53.32324219 656.04589844 C-55.09713497 653.97684879 -56.75168689 651.90828675 -58.38574219 649.73339844 C-58.84529297 649.13849609 -59.30484375 648.54359375 -59.77832031 647.93066406 C-61.76145088 645.3243471 -63.28060905 643.17379786 -64.32324219 640.04589844 C-64.98324219 640.04589844 -65.64324219 640.04589844 -66.32324219 640.04589844 C-70.32324219 634.63413373 -70.32324219 634.63413373 -70.32324219 632.04589844 C-71.31324219 631.71589844 -72.30324219 631.38589844 -73.32324219 631.04589844 C-74.49205087 629.60993349 -75.65758088 628.17106787 -76.79980469 626.71386719 C-78.50263131 624.84949034 -80.29881384 623.58675131 -82.38574219 622.17089844 C-90.3031096 616.38169557 -91.65460491 607.2866094 -93.32324219 598.04589844 C-93.32324219 597.05589844 -93.32324219 596.06589844 -93.32324219 595.04589844 C-98.44748556 597.99233837 -101.81547436 601.68385182 -105.58886719 606.21777344 C-106.16121094 606.82105469 -106.73355469 607.42433594 -107.32324219 608.04589844 C-107.98324219 608.04589844 -108.64324219 608.04589844 -109.32324219 608.04589844 C-109.59136719 608.61824219 -109.85949219 609.19058594 -110.13574219 609.78027344 C-111.36456855 612.12474478 -112.74846395 614.16994782 -114.32324219 616.29589844 C-115.09667969 617.35550781 -115.09667969 617.35550781 -115.88574219 618.43652344 C-116.36011719 618.96761719 -116.83449219 619.49871094 -117.32324219 620.04589844 C-117.98324219 620.04589844 -118.64324219 620.04589844 -119.32324219 620.04589844 C-119.56042969 620.57699219 -119.79761719 621.10808594 -120.04199219 621.65527344 C-121.69702603 624.74332439 -123.72872346 627.49874564 -125.82324219 630.29589844 C-126.42845703 631.12734375 -126.42845703 631.12734375 -127.04589844 631.97558594 C-128.0877439 633.37159009 -129.20069631 634.71392235 -130.32324219 636.04589844 C-130.98324219 636.04589844 -131.64324219 636.04589844 -132.32324219 636.04589844 C-132.49170654 636.93184692 -132.49170654 636.93184692 -132.66357422 637.83569336 C-133.38421035 640.25017113 -134.25821543 641.4978279 -135.87792969 643.40917969 C-136.40475342 644.04098145 -136.93157715 644.6727832 -137.47436523 645.32373047 C-138.04324463 645.9951709 -138.61212402 646.66661133 -139.19824219 647.35839844 C-147.90364576 657.84900321 -155.79095805 668.87040289 -163.6862793 679.97460938 C-167.79705529 685.74233421 -172.05185819 691.39616003 -176.32324219 697.04589844 C-179.94497719 701.83636983 -183.51197954 706.66068996 -187.01318359 711.54003906 C-188.12796733 713.08993399 -189.24909588 714.6352789 -190.37548828 716.17675781 C-192.8537911 719.57199792 -195.30519367 722.94287885 -197.49902344 726.53027344 C-203.41884687 735.68879787 -211.25604022 739.26782743 -220.8125 743.81494141 C-224.84519357 745.79207491 -228.73200327 748.01541269 -232.63574219 750.23339844 C-240.08962406 754.41509935 -247.64900034 758.28133709 -255.32324219 762.04589844 C-257.39597106 763.08604063 -259.46613143 764.13119482 -261.53637695 765.17626953 C-280.40974835 774.67989764 -280.40974835 774.67989764 -285.32324219 774.04589844 C-284.77098149 769.51331975 -283.5763307 766.1369441 -281.44824219 762.10839844 C-279.8023496 758.96962337 -278.24922098 755.8717309 -276.86230469 752.60839844 C-275.28324814 748.95332338 -273.48033725 745.47289724 -271.57324219 741.98339844 C-268.9042733 737.04359415 -266.31407547 732.07898128 -263.82324219 727.04589844 C-258.67946039 716.68819236 -253.2645353 706.50939876 -247.37792969 696.55371094 C-244.07278824 690.94550074 -240.88327727 685.26926751 -237.67382812 679.60595703 C-234.67583701 674.3372689 -231.57245291 669.16370287 -228.32324219 664.04589844 C-228.65324219 663.71589844 -228.98324219 663.38589844 -229.32324219 663.04589844 C-233.73054744 666.42383307 -238.09892608 669.80449348 -242.26074219 673.48339844 C-245.32324219 676.04589844 -245.32324219 676.04589844 -247.32324219 676.04589844 C-247.65324219 677.03589844 -247.98324219 678.02589844 -248.32324219 679.04589844 C-249.93483847 680.50496865 -251.61298887 681.89132465 -253.32324219 683.23339844 C-256.82065473 686.01878973 -260.22820155 688.82347692 -263.51074219 691.85839844 C-267.73578878 695.63789466 -272.14907198 699.14739664 -276.63574219 702.60839844 C-277.33014404 703.15794189 -278.0245459 703.70748535 -278.73999023 704.27368164 C-279.40297119 704.77730225 -280.06595215 705.28092285 -280.74902344 705.79980469 C-281.34110596 706.25685791 -281.93318848 706.71391113 -282.54321289 707.18481445 C-284.32324219 708.04589844 -284.32324219 708.04589844 -286.54663086 707.6862793 C-287.1329126 707.47495361 -287.71919434 707.26362793 -288.32324219 707.04589844 C-283.21740819 694.08493523 -276.85718515 681.80246972 -270.25366211 669.55273438 C-268.02327807 665.40333512 -265.90199499 661.21160991 -263.82324219 656.98339844 C-260.2733761 649.82719113 -256.34659872 642.94193153 -252.32324219 636.04589844 C-251.78183594 635.09585938 -251.24042969 634.14582031 -250.68261719 633.16699219 C-244.01334295 621.52813739 -236.77777243 610.1959724 -229.32324219 599.04589844 C-228.25633946 597.36117856 -227.19380394 595.67368475 -226.13574219 593.98339844 C-221.2024564 586.21609742 -215.94939204 578.67124823 -210.56152344 571.21386719 C-210.10495361 570.5806958 -209.64838379 569.94752441 -209.17797852 569.29516602 C-208.29218144 568.06967238 -207.40283463 566.84673469 -206.50952148 565.62670898 C-204.68239304 563.10199631 -203.31596673 561.02407206 -202.32324219 558.04589844 C-209.94155654 564.51868523 -217.48734913 571.0418092 -224.85839844 577.79589844 C-228.29840209 580.93606025 -231.7957559 584.00469582 -235.32324219 587.04589844 C-235.90203125 587.55378906 -236.48082031 588.06167969 -237.07714844 588.58496094 C-241.08912906 592.04589844 -241.08912906 592.04589844 -243.32324219 592.04589844 C-243.32324219 592.70589844 -243.32324219 593.36589844 -243.32324219 594.04589844 C-244.31324219 594.37589844 -245.30324219 594.70589844 -246.32324219 595.04589844 C-247.65636101 591.38022596 -246.97053719 589.21820063 -245.66308594 585.60839844 C-245.2842627 584.55378418 -244.90543945 583.49916992 -244.51513672 582.41259766 C-244.10118652 581.30158691 -243.68723633 580.19057617 -243.26074219 579.04589844 C-242.84679199 577.91555176 -242.4328418 576.78520508 -242.00634766 575.62060547 C-239.55329176 569.02736281 -236.98800808 562.65450502 -233.61230469 556.47558594 C-231.98576844 553.40981156 -230.68655399 550.23713328 -229.32324219 547.04589844 C-224.81728467 537.43520178 -219.83787181 528.11601295 -214.32324219 519.04589844 C-213.34871094 517.44101563 -213.34871094 517.44101563 -212.35449219 515.80371094 C-210.35888984 512.54166864 -208.34528873 509.2916041 -206.32324219 506.04589844 C-205.73542969 505.09585937 -205.14761719 504.14582031 -204.54199219 503.16699219 C-200.41522728 496.57354735 -195.94440366 490.2996324 -191.32324219 484.04589844 C-190.05214484 482.2752546 -188.78131374 480.50441961 -187.51074219 478.73339844 C-183.8669665 473.71148185 -180.05582732 468.83521657 -176.17944336 463.99194336 C-173.36210736 460.45218721 -170.78254825 456.84403234 -168.32324219 453.04589844 C-175.24938287 457.67419009 -181.75342251 462.71065368 -188.14379883 468.04492188 C-188.75731201 468.54797852 -189.3708252 469.05103516 -190.00292969 469.56933594 C-190.54675293 470.02228027 -191.09057617 470.47522461 -191.65087891 470.94189453 C-193.5193341 472.17534772 -195.13738155 472.62492228 -197.32324219 473.04589844 C-196.87883461 465.84795275 -195.10462932 460.33346612 -192.13574219 453.79589844 C-191.72718994 452.87204346 -191.3186377 451.94818848 -190.89770508 450.99633789 C-189.71878176 448.34033264 -188.5233701 445.69237474 -187.32324219 443.04589844 C-186.77339559 441.81559383 -186.22386173 440.58514935 -185.67480469 439.35449219 C-180.01021075 426.85170061 -173.73190201 414.67513128 -167.19824219 402.60839844 C-166.70759277 401.69711182 -166.21694336 400.7858252 -165.71142578 399.84692383 C-162.94621071 394.78075728 -160.00149063 389.93468064 -156.75195312 385.1652832 C-154.9878274 382.54833593 -153.34263868 379.86913712 -151.69824219 377.17602539 C-146.97964057 369.45688208 -141.88106149 362.19166612 -136.32324219 355.04589844 C-135.13173891 353.46444864 -133.9402364 351.88299826 -132.7487793 350.30151367 C-123.18505852 337.70516363 -112.74258991 326.28320933 -101.57324219 315.10839844 C-100.75809647 314.2917572 -100.75809647 314.2917572 -99.92648315 313.45861816 C-91.81521707 305.3490338 -83.54879878 297.60633828 -74.44824219 290.60839844 C-73.88105469 290.16302734 -73.31386719 289.71765625 -72.72949219 289.25878906 C-68.5640856 286.04589844 -68.5640856 286.04589844 -66.32324219 286.04589844 C-66.32324219 285.38589844 -66.32324219 284.72589844 -66.32324219 284.04589844 C-64.35016976 282.629644 -62.37944939 281.33074765 -60.32324219 280.04589844 C-59.12909638 279.26162446 -57.93640934 278.47512529 -56.74511719 277.68652344 C-55.52152017 276.88909376 -54.29755873 276.09222297 -53.07324219 275.29589844 C-52.44933594 274.8846875 -51.82542969 274.47347656 -51.18261719 274.04980469 C-46.55201088 271.04589844 -46.55201088 271.04589844 -44.32324219 271.04589844 C-44.03449219 270.30339844 -43.74574219 269.56089844 -43.44824219 268.79589844 C-42.49955956 266.47689645 -41.45764439 264.27657168 -40.32324219 262.04589844 C-41.21785156 262.33464844 -42.11246094 262.62339844 -43.03417969 262.92089844 C-50.24322955 265.13433806 -56.71695927 266.67683435 -64.32324219 266.04589844 C-64.32324219 262.52557416 -63.61972868 261.60736414 -61.32324219 259.04589844 C-60.66324219 259.04589844 -60.00324219 259.04589844 -59.32324219 259.04589844 C-59.07445312 258.49289062 -58.82566406 257.93988281 -58.56933594 257.37011719 C-57.09366901 254.61769768 -55.30716058 252.32184444 -53.38574219 249.85839844 C-44.76486873 238.55484294 -37.36639863 226.72479479 -31.23291016 213.90283203 C-28.42681281 208.17465801 -25.35181439 202.57598135 -22.34277344 196.95263672 C-21.45747487 195.29694183 -20.57739008 193.63846117 -19.69824219 191.97949219 C-13.46380747 180.3407513 -6.48624324 169.42960334 1.67675781 159.04589844 C2.18851563 158.37816406 2.70027344 157.71042969 3.22753906 157.02246094 C7.35789864 151.8798724 12.47105807 148.04710981 17.67675781 144.04589844 C18.45792969 143.37945312 19.23910156 142.71300781 20.04394531 142.02636719 C37.05454729 129.23055828 61.43438282 127.19537027 81.79394531 129.87329102 C97.26890881 132.15220187 114.47685441 136.45594864 125.67675781 148.04589844 C126.28390625 148.90828125 126.89105469 149.77066406 127.51660156 150.65917969 C130.17025058 153.59114995 131.4850728 153.81120801 135.36425781 154.23339844 C136.52054688 154.37390625 137.67683594 154.51441406 138.86816406 154.65917969 C140.125 154.78679687 141.38183594 154.91441406 142.67675781 155.04589844 C160.54869049 156.92993469 177.65595739 160.17665691 194.67675781 166.04589844 C195.5984375 166.36300781 196.52011719 166.68011719 197.46972656 167.00683594 C212.31729771 172.53041567 224.80631025 181.86622777 233.67675781 195.04589844 C234.06863281 195.62726563 234.46050781 196.20863281 234.86425781 196.80761719 C236.11072749 200.24140145 235.79804831 203.40718349 235.67675781 207.04589844 C234.82259277 207.04066162 233.96842773 207.0354248 233.08837891 207.0300293 C210.73585933 206.91153184 188.62751617 207.13802798 166.38006592 209.55163574 C164.89644945 209.71157522 163.4122789 209.86647448 161.92755127 210.01574707 C147.93744222 211.4456963 135.50250782 214.30563057 125.67675781 225.04589844 C119.19554749 233.02277268 118.9184897 242.15341602 119.67675781 252.04589844 C121.6117545 262.89317912 126.97013134 271.74471624 132.61425781 281.04589844 C133.12666016 281.89667969 133.6390625 282.74746094 134.16699219 283.62402344 C137.05807053 288.4289992 137.05807053 288.4289992 140.05737305 293.16650391 C142.98970639 297.6732925 145.08230928 302.10332974 146.86425781 307.17089844 C147.11111328 307.84765625 147.35796875 308.52441406 147.61230469 309.22167969 C148.09298797 310.54708373 148.56591988 311.87532996 149.03027344 313.20654297 C149.60799934 314.85026916 150.22387216 316.48047251 150.84472656 318.10839844 C151.80562332 321.50086024 151.87357537 324.40183823 151.80175781 327.92089844 C151.78371094 329.07332031 151.76566406 330.22574219 151.74707031 331.41308594 C151.71226562 332.71632813 151.71226562 332.71632813 151.67675781 334.04589844 C146.80175781 329.42089844 146.80175781 329.42089844 145.67675781 326.04589844 C145.01675781 326.04589844 144.35675781 326.04589844 143.67675781 326.04589844 C141.96239601 324.08662781 140.29270614 322.08709632 138.67675781 320.04589844 C138.79269287 320.59528076 138.90862793 321.14466309 139.02807617 321.71069336 C139.55707257 324.21820502 140.08566869 326.7258009 140.61425781 329.23339844 C140.79666016 330.09771484 140.9790625 330.96203125 141.16699219 331.85253906 C141.34423828 332.69365234 141.52148438 333.53476562 141.70410156 334.40136719 C141.86644287 335.1711792 142.02878418 335.94099121 142.19604492 336.73413086 C142.35468018 337.49701416 142.51331543 338.25989746 142.67675781 339.04589844 C142.85835449 339.7781665 143.03995117 340.51043457 143.22705078 341.26489258 C143.87008534 345.24144344 143.83941571 349.16440925 143.84472656 353.18652344 C143.84805496 354.06814148 143.85138336 354.94975952 143.85481262 355.85809326 C143.85986488 357.72065715 143.86222147 359.58323005 143.86206055 361.44580078 C143.86423961 364.27229029 143.88239296 367.09838452 143.90136719 369.92480469 C143.90430308 371.74120961 143.90628656 373.55761638 143.90722656 375.37402344 C143.91441208 376.20871155 143.9215976 377.04339966 143.92900085 377.90338135 C143.90842772 383.27987287 143.77854684 389.02284419 141.67675781 394.04589844 C140.68675781 394.37589844 139.69675781 394.70589844 138.67675781 395.04589844 C138.350625 393.96050781 138.02449219 392.87511719 137.68847656 391.75683594 C137.24734875 390.31143843 136.80592685 388.86613065 136.36425781 387.42089844 C136.15091797 386.70804688 135.93757812 385.99519531 135.71777344 385.26074219 C134.39375726 380.95274925 132.82139125 377.03328143 130.67675781 373.04589844 C130.60682617 373.64837402 130.53689453 374.25084961 130.46484375 374.87158203 C126.32199977 409.9658665 115.3476377 439.97810736 98.36425781 470.85839844 C97.9438623 471.62917725 97.5234668 472.39995605 97.09033203 473.1940918 C96.68959473 473.9147583 96.28885742 474.6354248 95.87597656 475.37792969 C95.52365967 476.01448486 95.17134277 476.65104004 94.80834961 477.30688477 C93.60975369 479.14886939 92.22956423 480.49925701 90.67675781 482.04589844 C89.72833987 483.71380585 88.78160008 485.38275682 87.85253906 487.06152344 C85.76829905 490.57911123 83.42985836 494.01748783 80.67675781 497.04589844 C80.01675781 497.04589844 79.35675781 497.04589844 78.67675781 497.04589844 C78.34675781 498.36589844 78.01675781 499.68589844 77.67675781 501.04589844 C77.01675781 501.04589844 76.35675781 501.04589844 75.67675781 501.04589844 C75.433125 501.60792969 75.18949219 502.16996094 74.93847656 502.74902344 C73.43494845 505.48609628 71.60976033 507.50385785 69.48925781 509.79589844 C66.79867911 512.71736743 64.15046324 515.65857755 61.56738281 518.67480469 C57.28457086 523.58348161 52.69303981 528.18011314 48.07885742 532.77416992 C46.60966613 534.23797328 45.14593488 535.70708531 43.68261719 537.17675781 C39.17102663 541.69093003 34.62516631 546.01527823 29.67675781 550.04589844 C28.51511249 551.26191865 27.38483352 552.50940242 26.30175781 553.79589844 C24.47719051 555.94527882 22.65254691 558.07200919 20.73535156 560.13964844 C8.49433585 573.36282001 1.43753969 585.86846214 1.61425781 603.92089844 C1.62102539 605.23960937 1.62102539 605.23960937 1.62792969 606.58496094 C1.63963445 608.73863647 1.65756712 610.8922766 1.67675781 613.04589844 C2.33675781 613.04589844 2.99675781 613.04589844 3.67675781 613.04589844 C5.18457031 614.94433594 5.18457031 614.94433594 6.80175781 617.42089844 C7.34058594 618.23300781 7.87941406 619.04511719 8.43457031 619.88183594 C9.67675781 622.04589844 9.67675781 622.04589844 9.67675781 624.04589844 C10.33675781 624.04589844 10.99675781 624.04589844 11.67675781 624.04589844 C13.16503906 625.88964844 13.16503906 625.88964844 14.98925781 628.54589844 C23.11608746 640.00947383 32.03747374 651.60249344 42.11425781 661.42089844 C43.67675781 663.04589844 43.67675781 663.04589844 43.67675781 665.04589844 C44.25425781 665.29339844 44.83175781 665.54089844 45.42675781 665.79589844 C47.67675781 667.04589844 47.67675781 667.04589844 49.30175781 668.92089844 C55.08866905 674.09866112 63.21351036 675.48757301 70.55175781 677.42089844 C83.24906401 680.8020322 94.64665503 685.40986624 101.67675781 697.04589844 C102.08925781 697.93277344 102.50175781 698.81964844 102.92675781 699.73339844 C105.51381664 703.15201189 108.71846709 703.85668773 112.67675781 705.04589844 C114.48853516 705.61630859 114.48853516 705.61630859 116.33691406 706.19824219 C124.27037299 708.69786583 124.27037299 708.69786583 132.23925781 711.08105469 C141.66154341 713.93314359 141.66154341 713.93314359 144.67675781 719.04589844 C145.31871094 719.65691406 145.31871094 719.65691406 145.97363281 720.28027344 C148.45080736 722.84835348 150.3654908 725.79103488 152.36425781 728.73339844 C152.77998047 729.33990234 153.19570313 729.94640625 153.62402344 730.57128906 C154.64445045 732.06087792 155.66099194 733.55312721 156.67675781 735.04589844 C164.52644088 732.46476474 171.52787703 729.1662361 178.67675781 725.04589844 C180.33384766 724.11390625 180.33384766 724.11390625 182.02441406 723.16308594 C197.99734199 714.16660852 213.31222301 704.45913235 227.67675781 693.04589844 C228.76823359 692.2021914 229.86076392 691.35984759 230.95410156 690.51855469 C237.78881272 685.23748549 244.30725465 679.80120987 250.56738281 673.84667969 C252.67675781 672.04589844 252.67675781 672.04589844 254.67675781 672.04589844 C255.33675781 670.72589844 255.99675781 669.40589844 256.67675781 668.04589844 C257.33675781 668.04589844 257.99675781 668.04589844 258.67675781 668.04589844 C259.33675781 666.72589844 259.99675781 665.40589844 260.67675781 664.04589844 C261.33675781 664.04589844 261.99675781 664.04589844 262.67675781 664.04589844 C263.33675781 662.72589844 263.99675781 661.40589844 264.67675781 660.04589844 C265.33675781 660.04589844 265.99675781 660.04589844 266.67675781 660.04589844 C266.93457031 659.47355469 267.19238281 658.90121094 267.45800781 658.31152344 C268.79041723 655.83460849 270.32731899 653.91178183 272.17675781 651.79589844 C272.78519531 651.08949219 273.39363281 650.38308594 274.02050781 649.65527344 C275.67675781 648.04589844 275.67675781 648.04589844 277.67675781 648.04589844 C277.90105469 647.5109375 278.12535156 646.97597656 278.35644531 646.42480469 C280.11073631 643.26396677 282.43124133 640.68763812 284.80175781 637.98339844 C289.76336317 632.22284241 294.28390684 626.25338314 298.67675781 620.04589844 C300.09140493 618.10692339 301.50805991 616.1694116 302.92675781 614.23339844 C307.26302469 608.31134801 311.23472772 602.22252935 314.98925781 595.92089844 C315.37879639 595.26927734 315.76833496 594.61765625 316.16967773 593.94628906 C319.71518148 588.00450882 323.20785904 582.0326924 326.67675781 576.04589844 C327.27810547 575.03076172 327.27810547 575.03076172 327.89160156 573.99511719 C329.79360282 570.75812636 331.41429341 567.49400787 332.8449707 564.02319336 C333.8183306 561.70935662 334.86972874 559.4378326 335.92285156 557.15917969 C338.8808328 550.66678459 341.60774201 544.08891795 344.30175781 537.48339844 C344.77871094 536.32904297 345.25566406 535.1746875 345.74707031 533.98535156 C348.14563151 528.11220795 350.32352629 522.28372414 352.05908203 516.1809082 C352.88212052 513.33605776 353.91376503 510.57806172 354.92675781 507.79589844 C359.2594 495.21278131 361.87802192 482.0391564 364.67675781 469.04589844 C364.89251465 468.04526367 365.10827148 467.04462891 365.33056641 466.01367188 C372.62093502 431.16064802 373.12665087 394.90764339 370.36425781 359.54589844 C370.30558533 358.77666046 370.24691284 358.00742249 370.1864624 357.21487427 C369.38184938 346.95295726 367.84755263 337.10699359 365.67675781 327.04589844 C365.35447207 325.25596615 365.03986 323.46459964 364.73925781 321.67089844 C363.37802988 314.05936556 361.50871859 306.55523132 359.67675781 299.04589844 C359.4542334 298.11503418 359.23170898 297.18416992 359.00244141 296.22509766 C352.43354441 269.20413383 342.28866188 242.26445434 328.73876953 217.98828125 C327.203156 215.17969705 325.81743609 212.30339522 324.42675781 209.42089844 C322.344413 205.22140639 320.03854658 201.36334596 317.36816406 197.51464844 C315.67317773 195.04067301 314.05914988 192.52255364 312.45458984 189.98925781 C307.57737283 182.29643436 302.3931474 174.88750619 296.84472656 167.65917969 C296.29429687 166.94117188 295.74386719 166.22316406 295.17675781 165.48339844 C294.69207031 164.86335937 294.20738281 164.24332031 293.70800781 163.60449219 C292.67675781 162.04589844 292.67675781 162.04589844 292.67675781 160.04589844 C291.68675781 159.71589844 290.69675781 159.38589844 289.67675781 159.04589844 C288.02050781 157.18261719 288.02050781 157.18261719 286.17675781 154.73339844 C282.54716825 150.06105386 278.70150483 145.70283723 274.67700195 141.37548828 C272.08690628 138.58892119 269.56602797 135.76698426 267.11425781 132.85839844 C262.1121104 127.08668988 256.25366163 122.13795982 250.36425781 117.29589844 C247.67675781 115.04589844 247.67675781 115.04589844 245.47363281 112.79199219 C242.21789612 109.59536803 238.78504277 106.72483875 235.23925781 103.85839844 C234.53623535 103.28959961 233.83321289 102.72080078 233.10888672 102.13476562 C218.51995623 90.43080025 202.93082023 80.2838188 186.67675781 71.04589844 C185.95617187 70.62953125 185.23558594 70.21316406 184.49316406 69.78417969 C135.48415141 41.89814413 78.06154736 25.87885556 21.67675781 25.04589844 C20.80792969 25.03075195 19.93910156 25.01560547 19.04394531 25 C12.91876782 24.9073996 6.80153979 24.94610805 0.67675781 25.04589844 C-0.11359863 25.05314941 -0.90395508 25.06040039 -1.71826172 25.06787109 C-28.79278298 25.3985266 -56.1348331 30.4931628 -82.32324219 37.04589844 C-83.1551709 37.25182617 -83.98709961 37.45775391 -84.84423828 37.66992188 C-120.31735693 46.58828385 -157.44528755 61.58517403 -187.32324219 83.04589844 C-187.95359375 83.49707031 -188.58394531 83.94824219 -189.23339844 84.41308594 C-189.84054687 84.84878906 -190.44769531 85.28449219 -191.07324219 85.73339844 C-194.32324219 88.04589844 -194.32324219 88.04589844 -196.71386719 89.46777344 C-203.9026528 93.8154821 -210.51682978 99.1487595 -217.19824219 104.23339844 C-218.24753906 105.03132813 -219.29683594 105.82925781 -220.37792969 106.65136719 C-223.22244356 108.96394942 -225.74062438 111.44987604 -228.32324219 114.04589844 C-229.65657552 114.7125651 -230.98990885 115.37923177 -232.32324219 116.04589844 C-232.65324219 117.03589844 -232.98324219 118.02589844 -233.32324219 119.04589844 C-234.8918457 120.59765625 -234.8918457 120.59765625 -236.88964844 122.24902344 C-241.20919942 125.91712956 -245.25719122 129.78746628 -249.26074219 133.79589844 C-250.3099585 134.84632324 -250.3099585 134.84632324 -251.38037109 135.91796875 C-255.96555504 140.55744673 -260.22624787 145.28506697 -264.25683594 150.41699219 C-266.51985943 153.2960372 -268.8852044 156.07163928 -271.26074219 158.85839844 C-275.83388618 164.32767951 -279.98564275 170.02473476 -284.07324219 175.86230469 C-285.8504428 178.37692014 -287.6726607 180.8131267 -289.57324219 183.23339844 C-292.33326178 186.88275767 -294.43315353 190.77024611 -296.56542969 194.81152344 C-298.27057995 197.94899992 -300.0687894 201.00827185 -301.90332031 204.07080078 C-306.82311606 212.2871565 -311.26693004 220.6352576 -315.44140625 229.25146484 C-316.73014123 231.87389068 -318.09835396 234.4545327 -319.44824219 237.04589844 C-322.71786831 243.57626584 -325.20192805 250.35901211 -327.66796875 257.22265625 C-328.23081179 258.78871877 -328.80341835 260.35126622 -329.37792969 261.91308594 C-330.0147387 263.64457489 -330.64349532 265.37904413 -331.26464844 267.11621094 C-332.06354902 269.32719041 -332.88839003 271.52882119 -333.72558594 273.72558594 C-337.76465497 284.49600336 -340.41416737 295.37310946 -342.80029297 306.61523438 C-343.47008366 309.72841649 -344.20670418 312.82411277 -344.94824219 315.92089844 C-345.41209253 317.96131876 -345.87042183 320.00300198 -346.32324219 322.04589844 C-346.56816406 323.13 -346.81308594 324.21410156 -347.06542969 325.33105469 C-357.16472499 374.00549338 -355.10533407 427.46487431 -344.08740234 475.68798828 C-343.34394989 478.95490362 -342.63185615 482.22712986 -341.92871094 485.50292969 C-341.49880865 487.47582318 -341.06788046 489.44849351 -340.63574219 491.42089844 C-340.4457666 492.30011963 -340.25579102 493.17934082 -340.06005859 494.08520508 C-338.93858343 499.05083162 -337.42009133 503.41016169 -335.32324219 508.04589844 C-334.8112653 509.61892889 -334.32820872 511.20191961 -333.88574219 512.79589844 C-331.0133676 522.71586337 -327.09865792 532.23443355 -323.07324219 541.73339844 C-322.59306641 542.8680957 -322.11289062 544.00279297 -321.61816406 545.171875 C-317.85264352 553.98399532 -313.75704916 562.55473979 -309.32324219 571.04589844 C-308.84113281 572.02042969 -308.35902344 572.99496094 -307.86230469 573.99902344 C-306.06046564 577.56611596 -304.15203489 581.06024685 -302.19824219 584.54589844 C-301.81224854 585.23570801 -301.42625488 585.92551758 -301.02856445 586.63623047 C-297.91702732 592.13309093 -294.58057365 597.45585775 -291.06689453 602.70410156 C-288.32324219 606.84351798 -288.32324219 606.84351798 -288.32324219 609.04589844 C-287.66324219 609.04589844 -287.00324219 609.04589844 -286.32324219 609.04589844 C-285.23466353 610.60488782 -284.22890551 612.22190488 -283.26074219 613.85839844 C-279.9919235 619.2098822 -276.25150959 623.79951321 -272.04589844 628.44042969 C-269.83628118 631.78241316 -269.63644584 633.09089877 -270.32324219 637.04589844 C-271.76229116 640.30983102 -273.51183121 643.35129119 -275.32324219 646.42089844 C-275.80019531 647.25234375 -276.27714844 648.08378906 -276.76855469 648.94042969 C-277.94215345 650.98249154 -279.12713346 653.01696719 -280.32324219 655.04589844 C-284.86567336 654.20776515 -286.60106831 651.66695258 -289.26074219 648.10839844 C-289.96602051 647.18752441 -289.96602051 647.18752441 -290.68554688 646.24804688 C-296.24007312 638.9425189 -301.59674617 631.4875137 -306.91943359 624.01220703 C-308.10118472 622.35693337 -309.29484122 620.7101686 -310.49121094 619.06542969 C-314.03116576 614.15012817 -317.02722489 609.11518978 -319.85839844 603.76074219 C-321.26641843 601.15121181 -322.76836803 598.6325448 -324.32324219 596.10839844 C-327.67042399 590.58468132 -330.48274805 584.8418591 -333.32324219 579.04589844 C-333.99347979 577.71043999 -334.66544088 576.37584552 -335.33886719 575.04199219 C-335.68836426 574.3486377 -336.03786133 573.6552832 -336.39794922 572.94091797 C-337.07480924 571.5988408 -337.75278405 570.25732499 -338.43212891 568.91650391 C-357.48135535 531.00186783 -368.98830454 489.29850529 -374.44824219 447.35839844 C-374.61904297 446.05177246 -374.78984375 444.74514648 -374.96582031 443.39892578 C-377.0601253 426.88854336 -377.59888952 410.61123448 -377.63574219 393.98339844 C-377.63869293 392.81436981 -377.64164368 391.64534119 -377.64468384 390.44088745 C-377.65328632 375.40850774 -377.27314092 360.54455918 -375.51074219 345.60839844 C-375.42797028 344.89988739 -375.34519836 344.19137634 -375.25991821 343.46139526 C-374.27895865 335.32059286 -372.83027035 327.35554821 -371.03271484 319.35839844 C-370.36900673 316.25957127 -369.84420072 313.17404226 -369.36621094 310.04199219 C-368.27393906 303.26047686 -366.49400299 296.71520302 -364.63574219 290.10839844 C-364.2827002 288.84439209 -363.9296582 287.58038574 -363.56591797 286.27807617 C-359.40345706 271.49180651 -354.84843895 256.93685784 -348.58496094 242.89746094 C-347.58943168 240.64750316 -346.69960445 238.42667277 -345.88574219 236.10839844 C-339.9432643 219.83568282 -331.2933665 203.81210308 -322.32324219 189.04589844 C-321.36611328 187.45841797 -321.36611328 187.45841797 -320.38964844 185.83886719 C-308.05963467 165.57726562 -294.15949321 146.49669165 -278.07324219 129.04199219 C-276.2754224 127.16139169 -276.2754224 127.16139169 -275.32324219 125.04589844 C-274.66324219 125.04589844 -274.00324219 125.04589844 -273.32324219 125.04589844 C-273.08621582 124.48362549 -272.84918945 123.92135254 -272.60498047 123.34204102 C-271.02934918 120.51941011 -269.10749861 118.58817838 -266.81542969 116.30761719 C-265.91050781 115.40462891 -265.00558594 114.50164062 -264.07324219 113.57128906 C-263.60015625 113.10440674 -263.12707031 112.63752441 -262.63964844 112.15649414 C-261.21866036 110.75355723 -259.80603776 109.34216351 -258.39355469 107.93066406 C-253.19486598 102.76501787 -247.88686441 97.81343705 -242.32324219 93.04589844 C-240.88409536 91.73520438 -239.44624756 90.42307971 -238.01074219 89.10839844 C-233.93205089 85.47668701 -229.64174704 82.26887762 -225.19433594 79.10449219 C-222.27718784 77.01287716 -219.42580285 74.84956557 -216.57324219 72.67089844 C-205.33874 64.23776436 -193.61524829 56.82566199 -181.32324219 50.04589844 C-180.41316406 49.53542969 -179.50308594 49.02496094 -178.56542969 48.49902344 C-170.61762996 44.08621523 -162.48900214 40.03660965 -154.32324219 36.04589844 C-153.68837891 35.73475098 -153.05351562 35.42360352 -152.39941406 35.10302734 C-136.70936219 27.45842178 -120.48522059 22.03450518 -103.84228516 16.84545898 C-101.42347628 16.07771339 -99.01941727 15.27505224 -96.61621094 14.45996094 C-65.95396755 4.18058337 -32.15696008 0.4441308 0 0 Z M12.67675781 438.04589844 C12.35102783 438.50738281 12.02529785 438.96886719 11.68969727 439.44433594 C5.12215377 448.7188575 -1.57571 457.81528853 -8.83178711 466.56542969 C-12.00024135 470.38733624 -15.02734185 474.27663729 -17.95532227 478.28662109 C-19.86876448 480.74749287 -22.12158835 482.8442446 -24.32324219 485.04589844 C-24.88011719 486.15964844 -24.88011719 486.15964844 -25.44824219 487.29589844 C-25.73699219 487.87339844 -26.02574219 488.45089844 -26.32324219 489.04589844 C-27.80824219 489.54089844 -27.80824219 489.54089844 -29.32324219 490.04589844 C-30.52341641 491.43557386 -31.72307224 492.8279917 -32.84667969 494.28027344 C-34.85996622 496.68769542 -37.09761067 498.83298929 -39.32324219 501.04589844 C-40.26641413 501.99294801 -41.20885983 502.94072134 -42.15063477 503.88916016 C-44.88779033 506.6441874 -47.62804966 509.39610446 -50.36938477 512.14697266 C-51.54249231 513.32510665 -52.71470047 514.50413692 -53.88598633 515.68408203 C-59.67382133 521.51342731 -65.43012742 527.30187346 -71.6887207 532.63183594 C-74.04562831 534.67085145 -76.21224798 536.87684763 -78.38574219 539.10839844 C-81.30617567 542.07397 -84.23977184 544.89485931 -87.44824219 547.54589844 C-88.39699219 548.37089844 -89.34574219 549.19589844 -90.32324219 550.04589844 C-90.32324219 550.70589844 -90.32324219 551.36589844 -90.32324219 552.04589844 C-90.89558594 552.28953125 -91.46792969 552.53316406 -92.05761719 552.78417969 C-94.72757757 554.27107142 -96.46153225 556.02673752 -98.57324219 558.23339844 C-101.30132902 561.02780829 -104.02522322 563.71657384 -107.01074219 566.23339844 C-111.67355261 570.22071117 -115.93425442 574.60438474 -120.22436523 578.98413086 C-122.90057584 581.69958098 -125.57393083 584.31483841 -128.53027344 586.72558594 C-130.93147214 588.72042794 -132.89095701 590.66176965 -134.88574219 593.04589844 C-136.92742713 595.45054959 -138.97928971 597.74256246 -141.26074219 599.92089844 C-143.55540065 601.79153543 -143.55540065 601.79153543 -143.32324219 604.04589844 C-144.31324219 604.37589844 -145.30324219 604.70589844 -146.32324219 605.04589844 C-147.72036493 607.00187027 -149.06104126 609.00026245 -150.32324219 611.04589844 C-142.23887841 607.23286518 -135.25856538 601.27800746 -128.23193359 595.82495117 C-123.77385831 592.37096472 -119.23932072 589.03357004 -114.66308594 585.73730469 C-113.50486328 584.90005859 -113.50486328 584.90005859 -112.32324219 584.04589844 C-111.18048828 583.25505859 -111.18048828 583.25505859 -110.01464844 582.44824219 C-109.45648438 581.98546875 -108.89832031 581.52269531 -108.32324219 581.04589844 C-108.32324219 580.38589844 -108.32324219 579.72589844 -108.32324219 579.04589844 C-107.72511719 578.75714844 -107.12699219 578.46839844 -106.51074219 578.17089844 C-104.12996427 576.99847818 -104.12996427 576.99847818 -101.32324219 575.04589844 C-101.32324219 574.38589844 -101.32324219 573.72589844 -101.32324219 573.04589844 C-100.74445313 572.77390625 -100.16566406 572.50191406 -99.56933594 572.22167969 C-93.71465633 569.15688219 -88.90549361 564.74873542 -84.32324219 560.04589844 C-83.22687074 559.14054158 -82.122548 558.24473314 -81.01074219 557.35839844 C-79.68042969 556.21371094 -79.68042969 556.21371094 -78.32324219 555.04589844 C-78.32324219 554.38589844 -78.32324219 553.72589844 -78.32324219 553.04589844 C-77.46472656 552.65917969 -77.46472656 552.65917969 -76.58886719 552.26464844 C-74.11195224 550.93223902 -72.18912558 549.39533726 -70.07324219 547.54589844 C-69.36683594 546.93746094 -68.66042969 546.32902344 -67.93261719 545.70214844 C-66.09094714 544.19173476 -66.09094714 544.19173476 -66.32324219 542.04589844 C-65.43091133 541.64056129 -65.43091133 541.64056129 -64.52055359 541.22703552 C-62.33848218 540.0540905 -60.91222698 538.88827449 -59.16625977 537.14770508 C-58.27932182 536.27022362 -58.27932182 536.27022362 -57.37446594 535.37501526 C-56.74525742 534.74175827 -56.11604889 534.10850128 -55.46777344 533.45605469 C-54.8067009 532.7968956 -54.14562836 532.13773651 -53.46452332 531.45860291 C-52.06430086 530.05974098 -50.66659911 528.65835203 -49.27124023 527.25463867 C-47.1676504 525.14046716 -45.05377883 523.0370151 -42.93847656 520.93457031 C-36.33348801 514.33583459 -29.94230724 507.74155912 -24.18164062 500.38183594 C-22.14050473 497.81620427 -19.97441722 495.4009711 -17.76074219 492.98339844 C-10.36867942 484.81864619 -4.36483851 476.85283924 0.67675781 467.04589844 C1.652129 465.27297173 2.63133125 463.50214755 3.61425781 461.73339844 C4.63996805 459.84019923 5.66038388 457.94412623 6.67675781 456.04589844 C7.15242188 455.16369629 7.15242188 455.16369629 7.63769531 454.26367188 C8.64356837 452.38545736 9.63076221 450.49841186 10.61425781 448.60839844 C11.52498047 446.87783203 11.52498047 446.87783203 12.45410156 445.11230469 C13.74793447 441.86738829 13.68002916 441.19339138 12.67675781 438.04589844 Z M-43.69824219 587.10839844 C-45.59347445 589.36809844 -46.94816114 591.74454519 -48.35839844 594.32714844 C-49.26772081 595.94699395 -50.29281783 597.5002619 -51.32324219 599.04589844 C-51.95308587 601.33614218 -51.95308587 601.33614218 -52.32324219 604.04589844 C-52.5978125 605.79773438 -52.5978125 605.79773438 -52.87792969 607.58496094 C-54.15886238 620.56881495 -48.69735719 627.99054767 -40.93408203 637.94384766 C-38.83666829 640.68084861 -36.99233807 643.51542158 -35.13574219 646.42089844 C-31.49017136 651.93200657 -27.49814078 657.1337871 -23.42480469 662.33105469 C-21.98949628 664.18521703 -20.62389625 666.09491734 -19.32324219 668.04589844 C-18.66324219 668.04589844 -18.00324219 668.04589844 -17.32324219 668.04589844 C-17.11699219 668.60277344 -16.91074219 669.15964844 -16.69824219 669.73339844 C-13.43183959 675.22689371 -8.20994404 678.08366449 -2.32324219 680.04589844 C0.83722027 679.78252657 1.94472976 678.86725047 4.67675781 677.04589844 C6.98211476 676.79939612 9.29779915 676.6431265 11.61425781 676.54589844 C17.48268364 676.43091907 17.48268364 676.43091907 22.67675781 674.04589844 C23.17175781 672.56089844 23.17175781 672.56089844 23.67675781 671.04589844 C21.69626548 667.15564563 19.57331455 663.33744019 16.67675781 660.04589844 C16.01675781 660.04589844 15.35675781 660.04589844 14.67675781 660.04589844 C14.433125 659.48386719 14.18949219 658.92183594 13.93847656 658.34277344 C12.43494845 655.60570059 10.60976033 653.58793902 8.48925781 651.29589844 C5.73495794 648.30524009 3.01432407 645.29516981 0.34863281 642.22558594 C-3.30531457 638.03668606 -7.07625884 633.9682308 -10.88574219 629.92089844 C-11.83610352 628.90576172 -11.83610352 628.90576172 -12.80566406 627.87011719 C-19.17926376 620.49068614 -19.17926376 620.49068614 -26.82324219 614.73339844 C-34.27692351 609.70216355 -37.13428484 600.36393636 -39.32324219 592.04589844 C-39.68248029 590.0503887 -40.02319531 588.05116226 -40.32324219 586.04589844 C-42.34909383 585.8420826 -42.34909383 585.8420826 -43.69824219 587.10839844 Z " fill="#DDDEE3" transform="translate(621.3232421875,204.9541015625)"/>
<path d="M0 0 C8.22754807 -0.09462257 16.44950223 -0.05558418 24.67675781 0.04589844 C25.67755371 0.05314941 26.67834961 0.06040039 27.70947266 0.06787109 C40.87989511 0.19937472 53.72713585 1.56499109 66.73925781 3.48339844 C67.48258362 3.5926767 68.22590942 3.70195496 68.99176025 3.81454468 C76.02005209 4.86119752 82.84756517 6.02589405 89.67675781 8.04589844 C91.44260923 8.34751102 93.21389441 8.61905315 94.98925781 8.85839844 C124.56745385 13.64794563 153.92030442 25.89616849 180.67675781 39.04589844 C181.65938599 39.52675903 181.65938599 39.52675903 182.66186523 40.01733398 C194.06220297 45.64899287 205.06139334 52.05241976 215.67675781 59.04589844 C216.81329813 59.77924796 217.95002827 60.51230336 219.08691406 61.24511719 C232.1389008 69.72708056 244.48020819 79.1357224 256.27124023 89.29467773 C259.30909532 91.91105157 262.40538892 94.39325118 265.61425781 96.79589844 C269.06655807 99.42320047 271.80515773 102.25748352 274.48535156 105.66308594 C275.64791961 107.19218869 275.64791961 107.19218869 277.67675781 108.04589844 C277.67675781 108.70589844 277.67675781 109.36589844 277.67675781 110.04589844 C278.54300781 110.41714844 278.54300781 110.41714844 279.42675781 110.79589844 C282.00615761 112.22889832 283.73797373 113.8301452 285.67675781 116.04589844 C285.67675781 116.70589844 285.67675781 117.36589844 285.67675781 118.04589844 C286.33675781 118.04589844 286.99675781 118.04589844 287.67675781 118.04589844 C289.05175781 119.40917969 289.05175781 119.40917969 290.67675781 121.35839844 C293.53542884 124.73198536 296.4759719 127.99708192 299.48925781 131.23339844 C304.95333783 137.22143133 309.818434 143.56813335 314.67675781 150.04589844 C315.32386719 150.88121094 315.97097656 151.71652344 316.63769531 152.57714844 C317.18683594 153.28871094 317.73597656 154.00027344 318.30175781 154.73339844 C318.76839844 155.33539063 319.23503906 155.93738281 319.71582031 156.55761719 C320.67675781 158.04589844 320.67675781 158.04589844 320.67675781 160.04589844 C321.33675781 160.04589844 321.99675781 160.04589844 322.67675781 160.04589844 C323.91338644 161.79001145 325.06777916 163.59296329 326.17675781 165.42089844 C328.61892288 169.4753299 328.61892288 169.4753299 331.67675781 173.04589844 C331.67675781 174.03589844 331.67675781 175.02589844 331.67675781 176.04589844 C332.33675781 176.04589844 332.99675781 176.04589844 333.67675781 176.04589844 C334.14984375 176.8825 334.62292969 177.71910156 335.11035156 178.58105469 C335.77800219 179.75701661 336.44600071 180.93278105 337.11425781 182.10839844 C337.47479248 182.74398682 337.83532715 183.3795752 338.20678711 184.03442383 C340.02764798 187.22651642 341.8730256 190.39304458 343.82519531 193.50683594 C352.93756419 208.0878676 360.24445908 223.73993152 366.41503906 239.77636719 C367.62064436 242.90048989 368.91537032 245.97040596 370.23925781 249.04589844 C375.90548026 262.63400513 379.78714052 276.87015448 383.67675781 291.04589844 C383.86625 291.73232422 384.05574219 292.41875 384.25097656 293.12597656 C390.60924129 316.43164614 393.84252051 340.01567559 395.67675781 364.04589844 C395.74878418 364.98578613 395.82081055 365.92567383 395.89501953 366.89404297 C397.36732313 387.13528845 396.8995173 407.31621477 395.13256836 427.51977539 C394.86172965 430.63750107 394.61117763 433.75642848 394.36230469 436.87597656 C393.57257115 446.40322768 392.61675877 455.64122368 390.38574219 464.94970703 C389.66177278 468.11133925 389.1736388 471.244234 388.72753906 474.45605469 C387.72751022 481.25439701 386.12417287 487.86279109 384.38256836 494.50219727 C383.86619095 496.47600918 383.3636431 498.45298565 382.86230469 500.43066406 C380.89666355 508.0722941 378.55712942 515.50576981 375.82885742 522.91503906 C374.86234247 525.54156752 373.94783677 528.17234728 373.07519531 530.83105469 C369.64595615 541.24141677 366.15164501 551.77885588 360.98535156 561.46777344 C358.92908905 565.5189175 357.18937069 569.70921057 355.43847656 573.90014648 C346.33653746 595.23823408 332.82925508 615.63886971 319.03466797 634.21240234 C317.98383677 635.63127008 316.93751516 637.05347828 315.89306641 638.47705078 C313.86936653 641.23419881 311.83637207 643.9842972 309.80175781 646.73339844 C309.1345874 647.64412109 308.46741699 648.55484375 307.7800293 649.49316406 C307.15040283 650.33943359 306.52077637 651.18570313 305.87207031 652.05761719 C305.02153076 653.20943481 305.02153076 653.20943481 304.15380859 654.38452148 C303.42266846 655.20690308 303.42266846 655.20690308 302.67675781 656.04589844 C302.01675781 656.04589844 301.35675781 656.04589844 300.67675781 656.04589844 C300.43570313 656.60535156 300.19464844 657.16480469 299.94628906 657.74121094 C298.41150353 660.52743698 296.52586487 662.58854259 294.36425781 664.92089844 C291.82705264 667.68102099 289.32203254 670.42337141 286.98925781 673.35839844 C284.45865793 676.29936587 281.65375431 678.56506802 278.67675781 681.04589844 C277.463423 682.51467216 276.25080135 683.98415473 275.05566406 685.46777344 C272.25559269 688.6723877 268.91619748 691.30052425 265.67675781 694.04589844 C264.61844597 694.96529836 263.56123458 695.8859659 262.50488281 696.80761719 C254.77935008 703.52651606 246.87829684 709.91819202 238.67675781 716.04589844 C237.77570312 716.72136719 236.87464844 717.39683594 235.94628906 718.09277344 C225.49466209 725.81184801 214.71419813 733.03876113 203.42285156 739.47167969 C200.88824241 740.92466331 198.40877107 742.44298089 195.92675781 743.98339844 C189.08474298 748.11991067 181.85202 751.53370819 174.67675781 755.04589844 C172.51009115 755.87923177 172.51009115 755.87923177 171.67675781 758.04589844 C171.30389648 757.55710205 170.93103516 757.06830566 170.546875 756.56469727 C168.84076763 754.32880702 167.13377023 752.09359778 165.42675781 749.85839844 C164.54697266 748.70500977 164.54697266 748.70500977 163.64941406 747.52832031 C160.69933189 743.66669589 157.73489382 739.82315058 154.67675781 736.04589844 C155.00675781 735.38589844 155.33675781 734.72589844 155.67675781 734.04589844 C156.33675781 734.37589844 156.99675781 734.70589844 157.67675781 735.04589844 C160.04275127 734.22291004 160.04275127 734.22291004 162.67675781 732.92089844 C163.670625 732.45039062 164.66449219 731.97988281 165.68847656 731.49511719 C166.67460938 731.016875 167.66074219 730.53863281 168.67675781 730.04589844 C169.48757813 729.66046875 170.29839844 729.27503906 171.13378906 728.87792969 C191.18675069 719.13411915 210.23842471 706.90139584 227.67675781 693.04589844 C228.76823359 692.2021914 229.86076392 691.35984759 230.95410156 690.51855469 C237.78881272 685.23748549 244.30725465 679.80120987 250.56738281 673.84667969 C252.67675781 672.04589844 252.67675781 672.04589844 254.67675781 672.04589844 C255.33675781 670.72589844 255.99675781 669.40589844 256.67675781 668.04589844 C257.33675781 668.04589844 257.99675781 668.04589844 258.67675781 668.04589844 C259.33675781 666.72589844 259.99675781 665.40589844 260.67675781 664.04589844 C261.33675781 664.04589844 261.99675781 664.04589844 262.67675781 664.04589844 C263.33675781 662.72589844 263.99675781 661.40589844 264.67675781 660.04589844 C265.33675781 660.04589844 265.99675781 660.04589844 266.67675781 660.04589844 C266.93457031 659.47355469 267.19238281 658.90121094 267.45800781 658.31152344 C268.79041723 655.83460849 270.32731899 653.91178183 272.17675781 651.79589844 C272.78519531 651.08949219 273.39363281 650.38308594 274.02050781 649.65527344 C275.67675781 648.04589844 275.67675781 648.04589844 277.67675781 648.04589844 C277.90105469 647.5109375 278.12535156 646.97597656 278.35644531 646.42480469 C280.11073631 643.26396677 282.43124133 640.68763812 284.80175781 637.98339844 C289.76336317 632.22284241 294.28390684 626.25338314 298.67675781 620.04589844 C300.09140493 618.10692339 301.50805991 616.1694116 302.92675781 614.23339844 C307.26302469 608.31134801 311.23472772 602.22252935 314.98925781 595.92089844 C315.37879639 595.26927734 315.76833496 594.61765625 316.16967773 593.94628906 C319.71518148 588.00450882 323.20785904 582.0326924 326.67675781 576.04589844 C327.27810547 575.03076172 327.27810547 575.03076172 327.89160156 573.99511719 C329.79360282 570.75812636 331.41429341 567.49400787 332.8449707 564.02319336 C333.8183306 561.70935662 334.86972874 559.4378326 335.92285156 557.15917969 C338.8808328 550.66678459 341.60774201 544.08891795 344.30175781 537.48339844 C344.77871094 536.32904297 345.25566406 535.1746875 345.74707031 533.98535156 C348.14563151 528.11220795 350.32352629 522.28372414 352.05908203 516.1809082 C352.88212052 513.33605776 353.91376503 510.57806172 354.92675781 507.79589844 C359.2594 495.21278131 361.87802192 482.0391564 364.67675781 469.04589844 C364.89251465 468.04526367 365.10827148 467.04462891 365.33056641 466.01367188 C372.62093502 431.16064802 373.12665087 394.90764339 370.36425781 359.54589844 C370.30558533 358.77666046 370.24691284 358.00742249 370.1864624 357.21487427 C369.38184938 346.95295726 367.84755263 337.10699359 365.67675781 327.04589844 C365.35447207 325.25596615 365.03986 323.46459964 364.73925781 321.67089844 C363.37802988 314.05936556 361.50871859 306.55523132 359.67675781 299.04589844 C359.4542334 298.11503418 359.23170898 297.18416992 359.00244141 296.22509766 C352.43354441 269.20413383 342.28866188 242.26445434 328.73876953 217.98828125 C327.203156 215.17969705 325.81743609 212.30339522 324.42675781 209.42089844 C322.344413 205.22140639 320.03854658 201.36334596 317.36816406 197.51464844 C315.67317773 195.04067301 314.05914988 192.52255364 312.45458984 189.98925781 C307.57737283 182.29643436 302.3931474 174.88750619 296.84472656 167.65917969 C296.29429687 166.94117188 295.74386719 166.22316406 295.17675781 165.48339844 C294.69207031 164.86335937 294.20738281 164.24332031 293.70800781 163.60449219 C292.67675781 162.04589844 292.67675781 162.04589844 292.67675781 160.04589844 C291.68675781 159.71589844 290.69675781 159.38589844 289.67675781 159.04589844 C288.02050781 157.18261719 288.02050781 157.18261719 286.17675781 154.73339844 C282.54716825 150.06105386 278.70150483 145.70283723 274.67700195 141.37548828 C272.08690628 138.58892119 269.56602797 135.76698426 267.11425781 132.85839844 C262.1121104 127.08668988 256.25366163 122.13795982 250.36425781 117.29589844 C247.67675781 115.04589844 247.67675781 115.04589844 245.47363281 112.79199219 C242.21789612 109.59536803 238.78504277 106.72483875 235.23925781 103.85839844 C234.53623535 103.28959961 233.83321289 102.72080078 233.10888672 102.13476562 C218.51995623 90.43080025 202.93082023 80.2838188 186.67675781 71.04589844 C185.95617187 70.62953125 185.23558594 70.21316406 184.49316406 69.78417969 C135.48415141 41.89814413 78.06154736 25.87885556 21.67675781 25.04589844 C20.80792969 25.03075195 19.93910156 25.01560547 19.04394531 25 C12.91876782 24.9073996 6.80153979 24.94610805 0.67675781 25.04589844 C-0.11359863 25.05314941 -0.90395508 25.06040039 -1.71826172 25.06787109 C-28.79278298 25.3985266 -56.1348331 30.4931628 -82.32324219 37.04589844 C-83.1551709 37.25182617 -83.98709961 37.45775391 -84.84423828 37.66992188 C-120.31735693 46.58828385 -157.44528755 61.58517403 -187.32324219 83.04589844 C-187.95359375 83.49707031 -188.58394531 83.94824219 -189.23339844 84.41308594 C-189.84054687 84.84878906 -190.44769531 85.28449219 -191.07324219 85.73339844 C-194.32324219 88.04589844 -194.32324219 88.04589844 -196.71386719 89.46777344 C-203.9026528 93.8154821 -210.51682978 99.1487595 -217.19824219 104.23339844 C-218.24753906 105.03132813 -219.29683594 105.82925781 -220.37792969 106.65136719 C-223.22244356 108.96394942 -225.74062438 111.44987604 -228.32324219 114.04589844 C-229.65657552 114.7125651 -230.98990885 115.37923177 -232.32324219 116.04589844 C-232.65324219 117.03589844 -232.98324219 118.02589844 -233.32324219 119.04589844 C-234.8918457 120.59765625 -234.8918457 120.59765625 -236.88964844 122.24902344 C-241.20919942 125.91712956 -245.25719122 129.78746628 -249.26074219 133.79589844 C-250.3099585 134.84632324 -250.3099585 134.84632324 -251.38037109 135.91796875 C-255.96555504 140.55744673 -260.22624787 145.28506697 -264.25683594 150.41699219 C-266.51985943 153.2960372 -268.8852044 156.07163928 -271.26074219 158.85839844 C-275.83388618 164.32767951 -279.98564275 170.02473476 -284.07324219 175.86230469 C-285.8504428 178.37692014 -287.6726607 180.8131267 -289.57324219 183.23339844 C-292.33326178 186.88275767 -294.43315353 190.77024611 -296.56542969 194.81152344 C-298.27057995 197.94899992 -300.0687894 201.00827185 -301.90332031 204.07080078 C-306.82311606 212.2871565 -311.26693004 220.6352576 -315.44140625 229.25146484 C-316.73014123 231.87389068 -318.09835396 234.4545327 -319.44824219 237.04589844 C-322.71786831 243.57626584 -325.20192805 250.35901211 -327.66796875 257.22265625 C-328.23081179 258.78871877 -328.80341835 260.35126622 -329.37792969 261.91308594 C-330.0147387 263.64457489 -330.64349532 265.37904413 -331.26464844 267.11621094 C-332.06354902 269.32719041 -332.88839003 271.52882119 -333.72558594 273.72558594 C-337.76465497 284.49600336 -340.41416737 295.37310946 -342.80029297 306.61523438 C-343.47008366 309.72841649 -344.20670418 312.82411277 -344.94824219 315.92089844 C-345.41209253 317.96131876 -345.87042183 320.00300198 -346.32324219 322.04589844 C-346.56816406 323.13 -346.81308594 324.21410156 -347.06542969 325.33105469 C-357.16472499 374.00549338 -355.10533407 427.46487431 -344.08740234 475.68798828 C-343.34394989 478.95490362 -342.63185615 482.22712986 -341.92871094 485.50292969 C-341.49880865 487.47582318 -341.06788046 489.44849351 -340.63574219 491.42089844 C-340.4457666 492.30011963 -340.25579102 493.17934082 -340.06005859 494.08520508 C-338.93858343 499.05083162 -337.42009133 503.41016169 -335.32324219 508.04589844 C-334.8112653 509.61892889 -334.32820872 511.20191961 -333.88574219 512.79589844 C-331.0133676 522.71586337 -327.09865792 532.23443355 -323.07324219 541.73339844 C-322.59306641 542.8680957 -322.11289062 544.00279297 -321.61816406 545.171875 C-317.85264352 553.98399532 -313.75704916 562.55473979 -309.32324219 571.04589844 C-308.84113281 572.02042969 -308.35902344 572.99496094 -307.86230469 573.99902344 C-306.06046564 577.56611596 -304.15203489 581.06024685 -302.19824219 584.54589844 C-301.81224854 585.23570801 -301.42625488 585.92551758 -301.02856445 586.63623047 C-297.91702732 592.13309093 -294.58057365 597.45585775 -291.06689453 602.70410156 C-288.32324219 606.84351798 -288.32324219 606.84351798 -288.32324219 609.04589844 C-287.66324219 609.04589844 -287.00324219 609.04589844 -286.32324219 609.04589844 C-285.23466353 610.60488782 -284.22890551 612.22190488 -283.26074219 613.85839844 C-279.9919235 619.2098822 -276.25150959 623.79951321 -272.04589844 628.44042969 C-269.83628118 631.78241316 -269.63644584 633.09089877 -270.32324219 637.04589844 C-271.76229116 640.30983102 -273.51183121 643.35129119 -275.32324219 646.42089844 C-275.80019531 647.25234375 -276.27714844 648.08378906 -276.76855469 648.94042969 C-277.94215345 650.98249154 -279.12713346 653.01696719 -280.32324219 655.04589844 C-284.86567336 654.20776515 -286.60106831 651.66695258 -289.26074219 648.10839844 C-289.96602051 647.18752441 -289.96602051 647.18752441 -290.68554688 646.24804688 C-296.24007312 638.9425189 -301.59674617 631.4875137 -306.91943359 624.01220703 C-308.10118472 622.35693337 -309.29484122 620.7101686 -310.49121094 619.06542969 C-314.03116576 614.15012817 -317.02722489 609.11518978 -319.85839844 603.76074219 C-321.26641843 601.15121181 -322.76836803 598.6325448 -324.32324219 596.10839844 C-327.67042399 590.58468132 -330.48274805 584.8418591 -333.32324219 579.04589844 C-333.99347979 577.71043999 -334.66544088 576.37584552 -335.33886719 575.04199219 C-335.68836426 574.3486377 -336.03786133 573.6552832 -336.39794922 572.94091797 C-337.07480924 571.5988408 -337.75278405 570.25732499 -338.43212891 568.91650391 C-357.48135535 531.00186783 -368.98830454 489.29850529 -374.44824219 447.35839844 C-374.61904297 446.05177246 -374.78984375 444.74514648 -374.96582031 443.39892578 C-377.0601253 426.88854336 -377.59888952 410.61123448 -377.63574219 393.98339844 C-377.63869293 392.81436981 -377.64164368 391.64534119 -377.64468384 390.44088745 C-377.65328632 375.40850774 -377.27314092 360.54455918 -375.51074219 345.60839844 C-375.42797028 344.89988739 -375.34519836 344.19137634 -375.25991821 343.46139526 C-374.27895865 335.32059286 -372.83027035 327.35554821 -371.03271484 319.35839844 C-370.36900673 316.25957127 -369.84420072 313.17404226 -369.36621094 310.04199219 C-368.27393906 303.26047686 -366.49400299 296.71520302 -364.63574219 290.10839844 C-364.2827002 288.84439209 -363.9296582 287.58038574 -363.56591797 286.27807617 C-359.40345706 271.49180651 -354.84843895 256.93685784 -348.58496094 242.89746094 C-347.58943168 240.64750316 -346.69960445 238.42667277 -345.88574219 236.10839844 C-339.9432643 219.83568282 -331.2933665 203.81210308 -322.32324219 189.04589844 C-321.36611328 187.45841797 -321.36611328 187.45841797 -320.38964844 185.83886719 C-308.05963467 165.57726562 -294.15949321 146.49669165 -278.07324219 129.04199219 C-276.2754224 127.16139169 -276.2754224 127.16139169 -275.32324219 125.04589844 C-274.66324219 125.04589844 -274.00324219 125.04589844 -273.32324219 125.04589844 C-273.08621582 124.48362549 -272.84918945 123.92135254 -272.60498047 123.34204102 C-271.02934918 120.51941011 -269.10749861 118.58817838 -266.81542969 116.30761719 C-265.91050781 115.40462891 -265.00558594 114.50164062 -264.07324219 113.57128906 C-263.60015625 113.10440674 -263.12707031 112.63752441 -262.63964844 112.15649414 C-261.21866036 110.75355723 -259.80603776 109.34216351 -258.39355469 107.93066406 C-253.19486598 102.76501787 -247.88686441 97.81343705 -242.32324219 93.04589844 C-240.88409536 91.73520438 -239.44624756 90.42307971 -238.01074219 89.10839844 C-233.93205089 85.47668701 -229.64174704 82.26887762 -225.19433594 79.10449219 C-222.27718784 77.01287716 -219.42580285 74.84956557 -216.57324219 72.67089844 C-205.33874 64.23776436 -193.61524829 56.82566199 -181.32324219 50.04589844 C-180.41316406 49.53542969 -179.50308594 49.02496094 -178.56542969 48.49902344 C-170.61762996 44.08621523 -162.48900214 40.03660965 -154.32324219 36.04589844 C-153.68837891 35.73475098 -153.05351562 35.42360352 -152.39941406 35.10302734 C-136.70936219 27.45842178 -120.48522059 22.03450518 -103.84228516 16.84545898 C-101.42347628 16.07771339 -99.01941727 15.27505224 -96.61621094 14.45996094 C-65.95396755 4.18058337 -32.15696008 0.4441308 0 0 Z " fill="#86AEC0" transform="translate(621.3232421875,204.9541015625)"/>
<path d="M0 0 C0.33 0 0.66 0 1 0 C2.19676702 4.71544114 2.16159029 9.30996538 2.16796875 14.140625 C2.17129715 15.02224304 2.17462555 15.90386108 2.17805481 16.81219482 C2.18310707 18.67475871 2.18546366 20.53733161 2.18530273 22.39990234 C2.1874818 25.22639185 2.20563515 28.05248608 2.22460938 30.87890625 C2.22754527 32.69531118 2.22952875 34.51171794 2.23046875 36.328125 C2.23765427 37.16281311 2.24483978 37.99750122 2.25224304 38.85748291 C2.2316699 44.23397443 2.10178903 49.97694575 0 55 C-1.485 55.495 -1.485 55.495 -3 56 C-3.53341184 54.42085985 -4.05125763 52.83645613 -4.5625 51.25 C-4.85253906 50.36828125 -5.14257812 49.4865625 -5.44140625 48.578125 C-6.01697435 45.92165684 -5.89248371 44.52968894 -5 42 C-4.67 43.65 -4.34 45.3 -4 47 C-2.02 46.505 -2.02 46.505 0 46 C0 30.82 0 15.64 0 0 Z " fill="#70747E" transform="translate(763,544)"/>
<path d="M0 0 C0.66 0.33 1.32 0.66 2 1 C-1.96607852 7.24349952 -6.82737922 12.15848306 -12.0625 17.375 C-12.97322266 18.30183594 -13.88394531 19.22867187 -14.82226562 20.18359375 C-15.69689453 21.05886719 -16.57152344 21.93414062 -17.47265625 22.8359375 C-18.26937744 23.63563965 -19.06609863 24.4353418 -19.88696289 25.25927734 C-22 27 -22 27 -25 27 C-25 26.34 -25 25.68 -25 25 C-24.34 25 -23.68 25 -23 25 C-22.76877441 24.44280273 -22.53754883 23.88560547 -22.29931641 23.31152344 C-20.65365415 20.3838402 -18.60024749 18.37614812 -16.2109375 16.015625 C-15.74765045 15.55516785 -15.2843634 15.09471069 -14.80703735 14.62030029 C-13.33434102 13.15874922 -11.85482597 11.70432832 -10.375 10.25 C-9.37193678 9.25697389 -8.36932743 8.26348911 -7.3671875 7.26953125 C-4.91669165 4.84102059 -2.4600333 2.41885325 0 0 Z " fill="#7090A1" transform="translate(371,305)"/>
<path d="M0 0 C-0.33 0.99 -0.66 1.98 -1 3 C-1.70125 2.855625 -2.4025 2.71125 -3.125 2.5625 C-7.10107781 3.16755532 -8.20849574 5.17115927 -10.5703125 8.2734375 C-12 10 -12 10 -15 12 C-15.99 12 -16.98 12 -18 12 C-18.23460937 12.57234375 -18.46921875 13.1446875 -18.7109375 13.734375 C-20.29406585 16.51684301 -22.1991525 18.17070214 -24.625 20.25 C-25.44226563 20.95640625 -26.25953125 21.6628125 -27.1015625 22.390625 C-27.72804688 22.92171875 -28.35453125 23.4528125 -29 24 C-29.66 23.67 -30.32 23.34 -31 23 C-25.49525668 16.2865432 -9.29842682 -3.09947561 0 0 Z " fill="#AAABB3" transform="translate(512,936)"/>
<path d="M0 0 C0.66 0 1.32 0 2 0 C2.625 2.8125 2.625 2.8125 3 6 C1 9 1 9 -2 10 C-3.66511507 10.12657125 -5.33223796 10.22765745 -7 10.3125 C-12.35599582 10.72504682 -16.69409372 12.19960828 -21.58984375 14.35546875 C-24 15 -24 15 -26.31640625 14.11328125 C-26.87199219 13.74589844 -27.42757812 13.37851562 -28 13 C-25.98249041 12.4956226 -23.97210848 11.99408362 -21.9375 11.5625 C-19.70268087 11.01897401 -19.70268087 11.01897401 -17 9 C-14.67489388 8.72892393 -12.33805431 8.55196724 -10 8.4375 C-4.91035872 8.19842781 -4.91035872 8.19842781 0 7 C1.04449911 3.86650268 0.93423645 3.01031744 0 0 Z " fill="#898D95" transform="translate(643,872)"/>
<path d="M0 0 C3.9853873 4.85177585 4.12457909 8.54209133 4.0625 14.75 C4.05347656 15.92046875 4.04445313 17.0909375 4.03515625 18.296875 C4.02355469 19.18890625 4.01195312 20.0809375 4 21 C-0.875 16.375 -0.875 16.375 -2 13 C-2.66 13 -3.32 13 -4 13 C-3.67 12.34 -3.34 11.68 -3 11 C-2.01 11.33 -1.02 11.66 0 12 C0.33 12.99 0.66 13.98 1 15 C1.10251672 9.87416389 1.03590199 5.05002222 0 0 Z " fill="#7B7F89" transform="translate(769,518)"/>
<path d="M0 0 C0.66 0.99 1.32 1.98 2 3 C0.42301238 4.63115895 -1.16184366 6.25471333 -2.75 7.875 C-3.63171875 8.77992188 -4.5134375 9.68484375 -5.421875 10.6171875 C-7.65565506 12.6817418 -9.26274186 13.81538828 -12 15 C-12.99 15.66 -13.98 16.32 -15 17 C-13.67879172 14.06769807 -12.25361803 12.01335101 -9.9609375 9.765625 C-9.38085938 9.19199219 -8.80078125 8.61835937 -8.203125 8.02734375 C-7.59984375 7.44082031 -6.9965625 6.85429688 -6.375 6.25 C-5.76398437 5.64800781 -5.15296875 5.04601562 -4.5234375 4.42578125 C-3.02011376 2.94594695 -1.51065144 1.47235324 0 0 Z " fill="#A1A3AA" transform="translate(519,521)"/>
<path d="M0 0 C0.66 0.33 1.32 0.66 2 1 C2 1.66 2 2.32 2 3 C4.31 3 6.62 3 9 3 C6.63224279 5.36775721 4.70288662 5.99896496 1.5625 7.125 C0.59441406 7.47820313 -0.37367188 7.83140625 -1.37109375 8.1953125 C-4 9 -4 9 -7 9 C-5.64978174 4.58110387 -3.73884332 2.65654657 0 0 Z " fill="#8B8E97" transform="translate(460,974)"/>
<path d="M0 0 C1 2 1 2 0.0625 5.125 C-0.288125 6.07375 -0.63875 7.0225 -1 8 C0.98 8 2.96 8 5 8 C1.42415553 12.10170395 -0.6433876 13.35453562 -6 14 C-5.19074658 11.85294019 -4.37750887 9.7073817 -3.5625 7.5625 C-3.11003906 6.36753906 -2.65757812 5.17257812 -2.19140625 3.94140625 C-1 1 -1 1 0 0 Z " fill="#8A8D95" transform="translate(339,899)"/>
<path d="M0 0 C0.99 0.33 1.98 0.66 3 1 C-0.9419417 5.88049925 -5.11950075 10.0580583 -10 14 C-10.33 13.01 -10.66 12.02 -11 11 C-7.37 7.37 -3.74 3.74 0 0 Z " fill="#638191" transform="translate(379,327)"/>
<path d="M0 0 C0.66 0.33 1.32 0.66 2 1 C-7.18892508 11.67100977 -7.18892508 11.67100977 -11 14 C-13.140625 13.5859375 -13.140625 13.5859375 -15 13 C-10.06664998 8.58191098 -5.12002677 4.20104761 0 0 Z " fill="#9DA0A7" transform="translate(477,960)"/>
<path d="M0 0 C0.33 1.32 0.66 2.64 1 4 C-0.26572233 5.15147661 -1.53777906 6.29599314 -2.8125 7.4375 C-3.87404297 8.39462891 -3.87404297 8.39462891 -4.95703125 9.37109375 C-7 11 -7 11 -10 12 C-10.99 13.485 -10.99 13.485 -12 15 C-12.99 15 -13.98 15 -15 15 C-15 14.34 -15 13.68 -15 13 C-9.52380952 8 -9.52380952 8 -7 8 C-6.67 7.01 -6.34 6.02 -6 5 C-4.12382302 3.15500602 -2.07262391 1.6316401 0 0 Z " fill="#9A9BA3" transform="translate(558,745)"/>
<path d="M0 0 C0.66 0 1.32 0 2 0 C2.8825181 3.00056154 3.1337923 4.61806301 2.0859375 7.609375 C0.51455254 12.51571364 0.23504166 17.4307262 -0.2109375 22.54296875 C-0.91174366 29.78060481 -0.91174366 29.78060481 -3 33 C-3.09762618 27.9820143 -2.74485364 23.15050956 -2.0625 18.1875 C-1.87794627 16.78528226 -1.69435226 15.38293788 -1.51171875 13.98046875 C-1.42325684 13.30419434 -1.33479492 12.62791992 -1.24365234 11.93115234 C-0.74300111 7.96306493 -0.36379745 3.98262477 0 0 Z " fill="#535863" transform="translate(750,572)"/>
<path d="M0 0 C7.6993462 3.57906116 13.49161023 8.87383553 18 16 C14.37236586 14.39629413 11.51256147 12.17683548 8.4375 9.6875 C7.48746094 8.92824219 6.53742187 8.16898437 5.55859375 7.38671875 C3.07673644 5.07158162 1.57020727 2.98709464 0 0 Z " fill="#718FA0" transform="translate(845,297)"/>
<path d="M0 0 C-2.30353947 0.93077554 -4.60936372 1.85527985 -6.91796875 2.7734375 C-9.11104284 3.64621984 -11.30081526 4.52731817 -13.48828125 5.4140625 C-14.64714844 5.87554688 -15.80601562 6.33703125 -17 6.8125 C-18.093125 7.25207031 -19.18625 7.69164062 -20.3125 8.14453125 C-23 9 -23 9 -25 8 C-24.67 7.34 -24.34 6.68 -24 6 C-22 5.66666667 -20 5.33333333 -18 5 C-17.67 4.34 -17.34 3.68 -17 3 C-15.35 3 -13.7 3 -12 3 C-12 2.34 -12 1.68 -12 1 C-10.56496445 0.63597631 -9.12683494 0.28413409 -7.6875 -0.0625 C-6.88699219 -0.25972656 -6.08648437 -0.45695313 -5.26171875 -0.66015625 C-3 -1 -3 -1 0 0 Z " fill="#888C94" transform="translate(502,965)"/>
<path d="M0 0 C0.66 0.33 1.32 0.66 2 1 C-4.83163265 12.03571429 -4.83163265 12.03571429 -10.875 13.875 C-11.926875 13.936875 -11.926875 13.936875 -13 14 C-8.88380164 9.08064098 -4.59589638 4.47352044 0 0 Z " fill="#668293" transform="translate(371,305)"/>
<path d="M0 0 C2 3 2 3 2 5 C3.32 4.67 4.64 4.34 6 4 C6 6.97 6 9.94 6 13 C5.01 13.33 4.02 13.66 3 14 C2.49307308 12.4188708 1.99473557 10.83498617 1.5 9.25 C1.2215625 8.36828125 0.943125 7.4865625 0.65625 6.578125 C0 4 0 4 0 0 Z " fill="#ABADB3" transform="translate(757,586)"/>
<path d="M0 0 C0.33 0.99 0.66 1.98 1 3 C-0.21741979 4.46815389 -1.44948761 5.92416847 -2.6875 7.375 C-3.37199219 8.18710937 -4.05648437 8.99921875 -4.76171875 9.8359375 C-7.09861313 12.09534323 -8.9302743 13.02155853 -12 14 C-10.49559933 10.57592139 -8.49408648 8.08625426 -6 5.3125 C-5.29875 4.52488281 -4.5975 3.73726562 -3.875 2.92578125 C-2 1 -2 1 0 0 Z " fill="#B6B7BE" transform="translate(609,692)"/>
<path d="M0 0 C1 3 1 3 -0.328125 6.14453125 C-0.95869099 7.37240552 -1.59977508 8.59492197 -2.25 9.8125 C-2.71986328 10.71838867 -2.71986328 10.71838867 -3.19921875 11.64257812 C-3.82249603 12.84387395 -4.4494038 14.04329369 -5.08007812 15.24072266 C-6.42305272 17.80905464 -7.71186119 20.4038437 -9 23 C-9.33 22.34 -9.66 21.68 -10 21 C-9.32502166 19.34630307 -8.63869184 17.69616367 -7.890625 16.07421875 C-6.62631273 13.12970202 -5.74600703 10.08759537 -4.84375 7.015625 C-3.9030898 4.76849231 -2.77154673 3.63962304 -1 2 C-0.67 1.34 -0.34 0.68 0 0 Z " fill="#475D6D" transform="translate(308,425)"/>
<path d="M0 0 C1.97265625 0.265625 1.97265625 0.265625 4.97265625 2.265625 C4.97265625 3.255625 4.97265625 4.245625 4.97265625 5.265625 C0.25861837 4.78623132 -3.69313676 4.29728452 -8.02734375 2.265625 C-5.42029477 -0.34142398 -3.55396134 0.02657167 0 0 Z " fill="#A3A6AD" transform="translate(804.02734375,978.734375)"/>
<path d="M0 0 C0.33 0 0.66 0 1 0 C1.16774403 2.77077198 1.33423936 5.54160927 1.5 8.3125 C1.54769531 9.09818359 1.59539063 9.88386719 1.64453125 10.69335938 C1.68964844 11.45068359 1.73476563 12.20800781 1.78125 12.98828125 C1.82314453 13.68477783 1.86503906 14.38127441 1.90820312 15.09887695 C1.98700971 16.73096966 2 18.36600579 2 20 C-0.01171875 18.97265625 -0.01171875 18.97265625 -2 17 C-2.15971019 14.29698038 -2.11111421 12.08989682 -1.8125 9.4375 C-1.75513672 8.75236328 -1.69777344 8.06722656 -1.63867188 7.36132812 C-1.18271684 2.36543367 -1.18271684 2.36543367 0 0 Z " fill="#585D69" transform="translate(568,809)"/>
<path d="M0 0 C3.36179774 1.44077046 5.59156268 3.24750021 8 6 C8 6.66 8 7.32 8 8 C8.66 8 9.32 8 10 8 C10.66 9.32 11.32 10.64 12 12 C8.20405883 11.43573848 6.41289367 9.81748138 3.75 7.125 C3.04359375 6.42632812 2.3371875 5.72765625 1.609375 5.0078125 C0 3 0 3 0 0 Z " fill="#617C8C" transform="translate(899,315)"/>
<path d="M0 0 C0.99 0 1.98 0 3 0 C1.3003494 4.73474097 -1.13659027 8.96167111 -3.625 13.3125 C-4.04523438 14.05306641 -4.46546875 14.79363281 -4.8984375 15.55664062 C-5.92948495 17.37269011 -6.96436046 19.18656533 -8 21 C-8.33 20.34 -8.66 19.68 -9 19 C-7.97615721 16.87603961 -6.85455012 14.79876934 -5.6875 12.75 C-3.30587309 8.55679075 -1.38101884 4.62676362 0 0 Z " fill="#445767" transform="translate(318,404)"/>
<path d="M0 0 C0.66 0 1.32 0 2 0 C2.86738365 3.43430411 3.71660951 6.87284451 4.5625 10.3125 C4.9327832 11.77719727 4.9327832 11.77719727 5.31054688 13.27148438 C5.53935547 14.20927734 5.76816406 15.14707031 6.00390625 16.11328125 C6.21861572 16.97735596 6.4333252 17.84143066 6.65454102 18.73168945 C7 21 7 21 6 24 C3.74503612 17.06974434 2.16239217 10.19315625 1 3 C-0.32 3.33 -1.64 3.66 -3 4 C-1.625 2 -1.625 2 0 0 Z " fill="#4C515C" transform="translate(527,797)"/>
<path d="M0 0 C0.84191782 2.9248633 1.11819313 5.50741656 1.09765625 8.546875 C1.09443359 9.39121094 1.09121094 10.23554687 1.08789062 11.10546875 C1.07951172 11.97816406 1.07113281 12.85085938 1.0625 13.75 C1.05798828 14.63816406 1.05347656 15.52632812 1.04882812 16.44140625 C1.037074 18.62767329 1.02064249 20.81380179 1 23 C1.66 23 2.32 23 3 23 C3 23.66 3 24.32 3 25 C1.68 24.67 0.36 24.34 -1 24 C-1.02893932 20.37501666 -1.04677792 16.75006287 -1.0625 13.125 C-1.07087891 12.09246094 -1.07925781 11.05992187 -1.08789062 9.99609375 C-1.09111328 9.00996094 -1.09433594 8.02382813 -1.09765625 7.0078125 C-1.10289307 6.09660645 -1.10812988 5.18540039 -1.11352539 4.24658203 C-1 2 -1 2 0 0 Z " fill="#2C3341" transform="translate(622,795)"/>
<path d="M0 0 C0.99 0 1.98 0 3 0 C1.38943743 3.25984059 -0.28716654 6.48021934 -2 9.6875 C-2.515625 10.66074219 -3.03125 11.63398438 -3.5625 12.63671875 C-5 15 -5 15 -7 16 C-6.34 13.36 -5.68 10.72 -5 8 C-4.34 8 -3.68 8 -3 8 C-2.814375 6.8553125 -2.814375 6.8553125 -2.625 5.6875 C-2 3 -2 3 0 0 Z " fill="#597382" transform="translate(328,388)"/>
<path d="M0 0 C1.32 0.33 2.64 0.66 4 1 C0.37 4.3 -3.26 7.6 -7 11 C-7.66 10.67 -8.32 10.34 -9 10 C-6.03 6.7 -3.06 3.4 0 0 Z " fill="#BDBFC5" transform="translate(490,949)"/>
<path d="M0 0 C4.75481646 0.57634139 7.97048212 2.55068521 12 5 C12 5.66 12 6.32 12 7 C12.66 7.33 13.32 7.66 14 8 C8.04697456 7.70234873 4.31075199 4.85123021 0 1 C0 0.67 0 0.34 0 0 Z " fill="#979AA2" transform="translate(714,924)"/>
<path d="M0 0 C1.32827107 2.65654214 0.72245548 3.59432385 -0.1875 6.375 C-1.48474156 10.10456948 -2.84321958 12.49634656 -6 15 C-6.33 14.34 -6.66 13.68 -7 13 C-5.92325298 10.71741367 -4.80453884 8.5643566 -3.5625 6.375 C-3.22412109 5.76398437 -2.88574219 5.15296875 -2.53710938 4.5234375 C-1.69853808 3.011647 -0.85017423 1.50529601 0 0 Z " fill="#83868E" transform="translate(364,850)"/>
<path d="M0 0 C0.66 0.33 1.32 0.66 2 1 C0.61240749 2.61130023 -0.78545623 4.21375841 -2.1875 5.8125 C-2.96480469 6.70582031 -3.74210938 7.59914063 -4.54296875 8.51953125 C-6.91416012 10.91334129 -8.96690251 12.54717179 -12 14 C-12.66 13.67 -13.32 13.34 -14 13 C-12.625 11.5 -12.625 11.5 -11 10 C-10.34 10 -9.68 10 -9 10 C-8.67 9.01 -8.34 8.02 -8 7 C-6.15234375 5.17578125 -6.15234375 5.17578125 -3.9375 3.3125 C-2.83728516 2.37857422 -2.83728516 2.37857422 -1.71484375 1.42578125 C-1.14894531 0.95527344 -0.58304688 0.48476563 0 0 Z " fill="#82848D" transform="translate(541,760)"/>
<path d="M0 0 C1.1700097 3.91736581 0.69584017 6.97959015 0 11 C-0.99 11.33 -1.98 11.66 -3 12 C-4.21869929 14.50447516 -4.21869929 14.50447516 -5 17 C-5.33 16.34 -5.66 15.68 -6 15 C-5.09239638 12.40267775 -4.12932108 9.90549025 -3.0625 7.375 C-2.77181641 6.66859375 -2.48113281 5.9621875 -2.18164062 5.234375 C-1.46132512 3.48672427 -0.73154306 1.74298085 0 0 Z " fill="#5A7282" transform="translate(966,741)"/>
<path d="M0 0 C1 2 1 2 0.3984375 4.4609375 C-2.97611689 14.06940152 -2.97611689 14.06940152 -8 17 C-6.59441952 10.53432978 -3.54628896 5.54247048 0 0 Z " fill="#556D7C" transform="translate(293,405)"/>
<path d="M0 0 C0.33 0.66 0.66 1.32 1 2 C0.67 2.99 0.34 3.98 0 5 C2.97 5.495 2.97 5.495 6 6 C3.64031256 8.09749995 2.45383006 8.96905704 -0.75 9.1875 C-1.4925 9.125625 -2.235 9.06375 -3 9 C-2.5020163 5.26512223 -2.12508244 3.18762365 0 0 Z " fill="#8F929A" transform="translate(339,970)"/>
<path d="M0 0 C-0.33 0.66 -0.66 1.32 -1 2 C-2.32 2 -3.64 2 -5 2 C-5.33 2.99 -5.66 3.98 -6 5 C-8.06640625 5.73046875 -8.06640625 5.73046875 -10.5625 6.1875 C-11.38878906 6.34605469 -12.21507812 6.50460937 -13.06640625 6.66796875 C-14.02353516 6.83232422 -14.02353516 6.83232422 -15 7 C-13.55065441 4.10130881 -11.43718538 3.36621397 -8.625 1.8125 C-7.64789062 1.26207031 -6.67078125 0.71164062 -5.6640625 0.14453125 C-3 -1 -3 -1 0 0 Z " fill="#9B9DA4" transform="translate(526,928)"/>
<path d="M0 0 C0.33 0 0.66 0 1 0 C1.125 2.875 1.125 2.875 1 6 C0.34 6.66 -0.32 7.32 -1 8 C-1.67651207 10.19704511 -1.67651207 10.19704511 -2.125 12.625 C-2.37636719 13.85089844 -2.37636719 13.85089844 -2.6328125 15.1015625 C-2.75398437 15.72804688 -2.87515625 16.35453125 -3 17 C-3.33 17 -3.66 17 -4 17 C-3.91266027 14.91589342 -3.80447722 12.83265331 -3.6875 10.75 C-3.62949219 9.58984375 -3.57148437 8.4296875 -3.51171875 7.234375 C-2.9824951 3.88935837 -2.3219844 2.41152107 0 0 Z " fill="#91949C" transform="translate(561,892)"/>
<path d="M0 0 C0.66 0.33 1.32 0.66 2 1 C-1.33608598 5.41540792 -3.80370588 7.78881101 -9 10 C-9.78375 10.391875 -10.5675 10.78375 -11.375 11.1875 C-11.91125 11.455625 -12.4475 11.72375 -13 12 C-9.48451346 6.95604105 -4.88263123 3.62024153 0 0 Z " fill="#4E6271" transform="translate(859,890)"/>
<path d="M0 0 C0.99 0.33 1.98 0.66 3 1 C0.75564555 2.03516348 -1.49406867 3.05314977 -3.75 4.0625 C-4.70132813 4.50432617 -4.70132813 4.50432617 -5.671875 4.95507812 C-10.45095438 7.07081639 -10.45095438 7.07081639 -13.453125 6.68359375 C-13.96359375 6.45800781 -14.4740625 6.23242188 -15 6 C-14.195625 5.731875 -13.39125 5.46375 -12.5625 5.1875 C-11.716875 4.795625 -10.87125 4.40375 -10 4 C-9.67 3.01 -9.34 2.02 -9 1 C-7.88625 1.020625 -6.7725 1.04125 -5.625 1.0625 C-2.16784079 1.26380718 -2.16784079 1.26380718 0 0 Z " fill="#7C8089" transform="translate(547,945)"/>
<path d="M0 0 C1 2 1 2 0.1875 5 C-1 8 -1 8 -3 10 C-3.144375 10.680625 -3.28875 11.36125 -3.4375 12.0625 C-3.7159375 13.0215625 -3.7159375 13.0215625 -4 14 C-4.99 14.33 -5.98 14.66 -7 15 C-5.67231025 9.20644472 -3.33455096 4.9000081 0 0 Z " fill="#868A92" transform="translate(606,389)"/>
<path d="M0 0 C0.99 0 1.98 0 3 0 C1.59023295 3.03852705 -0.08870228 5.5939595 -2.125 8.25 C-2.66382813 8.95640625 -3.20265625 9.6628125 -3.7578125 10.390625 C-4.16773438 10.92171875 -4.57765625 11.4528125 -5 12 C-6 10 -6 10 -5.3125 7.6875 C-3.85444811 4.70196517 -2.27951653 2.41766905 0 0 Z " fill="#597383" transform="translate(348,361)"/>
<path d="M0 0 C0 3.31246505 -0.55697235 4.36108136 -2.25 7.125 C-2.87648438 8.18074219 -2.87648438 8.18074219 -3.515625 9.2578125 C-5.26426684 11.31016581 -6.37417256 11.629691 -9 12 C-7.55575365 8.76138697 -5.74227753 6.38030837 -3.375 3.75 C-2.74335938 3.04359375 -2.11171875 2.3371875 -1.4609375 1.609375 C-0.97882813 1.07828125 -0.49671875 0.5471875 0 0 Z " fill="#5C7686" transform="translate(338,340)"/>
<path d="M0 0 C0.598125 0.20625 1.19625 0.4125 1.8125 0.625 C1.8125 1.285 1.8125 1.945 1.8125 2.625 C3.4625 2.625 5.1125 2.625 6.8125 2.625 C7.1425 3.615 7.4725 4.605 7.8125 5.625 C2.96590923 5.03395235 -0.79498167 3.64555843 -5.1875 1.625 C-2.1875 -0.375 -2.1875 -0.375 0 0 Z " fill="#9699A1" transform="translate(788.1875,974.375)"/>
<path d="M0 0 C0.66 0.33 1.32 0.66 2 1 C-0.64 3.97 -3.28 6.94 -6 10 C-7.32 9.34 -8.64 8.68 -10 8 C-6.7 5.36 -3.4 2.72 0 0 Z " fill="#3A3F4C" transform="translate(461,649)"/>
<path d="M0 0 C4.87685861 1.35468295 6.48592381 3.71675909 9 8 C4.56541027 6.6062718 2.12621626 4.39417765 -1 1 C-0.67 0.67 -0.34 0.34 0 0 Z " fill="#94979F" transform="translate(705,916)"/>
<path d="M0 0 C0.99 0.33 1.98 0.66 3 1 C1.38405168 3.04119788 -0.2856382 5.04072937 -2 7 C-2.66 7 -3.32 7 -4 7 C-4.33 7.99 -4.66 8.98 -5 10 C-5.8125 8.3125 -5.8125 8.3125 -6 6 C-3.625 3.3125 -3.625 3.3125 -1 1 C-0.67 0.67 -0.34 0.34 0 0 Z " fill="#9EA1A8" transform="translate(494,787)"/>
<path d="M0 0 C0 3.75366417 -1.11420063 5.78715662 -3 9 C-3.99 9.33 -4.98 9.66 -6 10 C-6 10.99 -6 11.98 -6 13 C-6.66 13 -7.32 13 -8 13 C-6.40956621 7.91061189 -3.2553049 4.12543357 0 0 Z " fill="#80838B" transform="translate(481,566)"/>
<path d="M0 0 C-1.93108963 1.03290841 -3.870118 2.05098672 -5.8125 3.0625 C-6.89144531 3.63097656 -7.97039062 4.19945312 -9.08203125 4.78515625 C-12 6 -12 6 -15 5 C-14.360625 4.71125 -13.72125 4.4225 -13.0625 4.125 C-10.84793921 3.17176549 -10.84793921 3.17176549 -10 1 C-3.67567568 -1.22522523 -3.67567568 -1.22522523 0 0 Z " fill="#626772" transform="translate(360,970)"/>
<path d="M0 0 C1.32 0.33 2.64 0.66 4 1 C-2.28571429 6.42857143 -2.28571429 6.42857143 -6 8 C-5.34 6.68 -4.68 5.36 -4 4 C-3.34 4 -2.68 4 -2 4 C-1.34 2.68 -0.68 1.36 0 0 Z " fill="#637D8D" transform="translate(882,869)"/>
<path d="M0 0 C1.44926837 4.45552099 0.1032744 6.86856813 -2 11 C-3.6875 12.9375 -3.6875 12.9375 -5 14 C-4.34580901 8.93001981 -2.1453591 4.58009223 0 0 Z " fill="#7C8088" transform="translate(433,650)"/>
<path d="M0 0 C-2.10171867 0.8394882 -4.20646625 1.67139656 -6.3125 2.5 C-7.48425781 2.9640625 -8.65601563 3.428125 -9.86328125 3.90625 C-13 5 -13 5 -16 5 C-13.13104274 1.70601203 -11.32353282 0.55429908 -7 0 C-3.86650268 -1.04449911 -3.01031744 -0.93423645 0 0 Z " fill="#626772" transform="translate(769,417)"/>
<path d="M0 0 C0.66 0.33 1.32 0.66 2 1 C-1.32307692 6.78461538 -1.32307692 6.78461538 -4.75 7.875 C-5.4925 7.91625 -6.235 7.9575 -7 8 C-5.50902342 4.2047869 -3.24299151 2.38957269 0 0 Z " fill="#627C8C" transform="translate(380,297)"/>
<path d="M0 0 C3.53752749 3.29356008 5.84723842 6.69447685 8 11 C6.0625 10.1875 6.0625 10.1875 4 9 C3.67 8.01 3.34 7.02 3 6 C2.34 6 1.68 6 1 6 C0.67 4.02 0.34 2.04 0 0 Z " fill="#7B7E87" transform="translate(719,898)"/>
<path d="M0 0 C1.60031344 3.20062687 0.03173691 5.72271806 -1 9 C-1.66 9 -2.32 9 -3 9 C-3.33 9.99 -3.66 10.98 -4 12 C-4.66 12 -5.32 12 -6 12 C-4.43358249 7.69235185 -2.31663844 3.93828536 0 0 Z " fill="#7A7D86" transform="translate(384,884)"/>
<path d="M0 0 C1.6026213 3.2052426 0.04134314 5.70241339 -1 9 C-1.33 9.99 -1.66 10.98 -2 12 C-2.99 12.33 -3.98 12.66 -5 13 C-4.39254603 8.14036821 -2.27241033 4.2594482 0 0 Z " fill="#81848D" transform="translate(391,754)"/>
<path d="M0 0 C0.66 0.33 1.32 0.66 2 1 C0.375 3.9375 0.375 3.9375 -2 7 C-5.25 7.875 -5.25 7.875 -8 8 C-5.33333333 5.33333333 -2.66666667 2.66666667 0 0 Z " fill="#80838C" transform="translate(551,492)"/>
<path d="M0 0 C0.66 0.33 1.32 0.66 2 1 C-0.65337187 6.30674374 -2.58047161 8.2902358 -8 11 C-6.63629701 8.00779732 -5.05091917 5.70973471 -2.875 3.25 C-2.33617187 2.63640625 -1.79734375 2.0228125 -1.2421875 1.390625 C-0.62730469 0.70226562 -0.62730469 0.70226562 0 0 Z " fill="#757781" transform="translate(629,357)"/>
<path d="M0 0 C0.33 0 0.66 0 1 0 C1.3125 2.25 1.3125 2.25 1 5 C-1.5 7.3125 -1.5 7.3125 -4 9 C-4.33 8.34 -4.66 7.68 -5 7 C-4.19152271 5.83054208 -3.37810888 4.66449539 -2.5625 3.5 C-2.11003906 2.8503125 -1.65757812 2.200625 -1.19140625 1.53125 C-0.79824219 1.0259375 -0.40507812 0.520625 0 0 Z " fill="#8D9098" transform="translate(413,773)"/>
<path d="M0 0 C1 2 1 2 0.22265625 4.3828125 C-0.16019531 5.28773438 -0.54304687 6.19265625 -0.9375 7.125 C-1.31777344 8.03507813 -1.69804688 8.94515625 -2.08984375 9.8828125 C-2.39019531 10.58148437 -2.69054687 11.28015625 -3 12 C-3.66 11.01 -4.32 10.02 -5 9 C-3.999446 5.45258126 -2.31399338 2.83990097 0 0 Z " fill="#313744" transform="translate(639,634)"/>
<path d="M0 0 C2.96052484 3.36423277 3.92289822 6.69159287 5 11 C4.34 10.67 3.68 10.34 3 10 C3 9.34 3 8.68 3 8 C2.01 7.67 1.02 7.34 0 7 C0 4.69 0 2.38 0 0 Z " fill="#587383" transform="translate(979,427)"/>
<path d="M0 0 C4.55015893 1.51671964 6.50057264 5.16891053 9 9 C5.05860922 7.33248852 2.2107188 4.77289351 -1 2 C-0.67 1.34 -0.34 0.68 0 0 Z " fill="#506574" transform="translate(854,304)"/>
<path d="M0 0 C-1 2 -1 2 -3.9375 3 C-5.4534375 3.495 -5.4534375 3.495 -7 4 C-7.66 4.66 -8.32 5.32 -9 6 C-11.125 5.625 -11.125 5.625 -13 5 C-11.40377344 3.96679519 -9.79770894 2.94877571 -8.1875 1.9375 C-7.29417969 1.36902344 -6.40085937 0.80054688 -5.48046875 0.21484375 C-3 -1 -3 -1 0 0 Z " fill="#5F7787" transform="translate(441,257)"/>
<path d="M0 0 C0.99 0.33 1.98 0.66 3 1 C1.02 3.31 -0.96 5.62 -3 8 C-3.66 7.67 -4.32 7.34 -5 7 C-1.125 1.125 -1.125 1.125 0 0 Z " fill="#81858E" transform="translate(660,742)"/>
<path d="M0 0 C0 4.61538462 0 4.61538462 -1 7 C-3.5625 8.25 -3.5625 8.25 -6 9 C-4.47291037 5.56404834 -2.40072955 2.88087546 0 0 Z " fill="#888A93" transform="translate(496,546)"/>
<path d="M0 0 C3.40320742 1.01176437 4.75725331 1.64843582 6.8125 4.625 C7.204375 5.40875 7.59625 6.1925 8 7 C4.06326356 5.68775452 1.77280706 4.08089673 -1 1 C-0.67 0.67 -0.34 0.34 0 0 Z " fill="#5C7483" transform="translate(826,284)"/>
<path d="M0 0 C-0.33 0.99 -0.66 1.98 -1 3 C-1.7425 2.95875 -2.485 2.9175 -3.25 2.875 C-6.08758952 3.00398134 -7.58773938 3.57051222 -10 5 C-7.22392109 0.83588163 -5.08838935 -1.69612978 0 0 Z " fill="#9698A0" transform="translate(512,936)"/>
<path d="M0 0 C0 3.29223784 -0.50518132 5.08510357 -2 8 C-4.125 9.3125 -4.125 9.3125 -6 10 C-4.6302836 6.00499382 -2.74277578 3.19990508 0 0 Z " fill="#556B7B" transform="translate(928,814)"/>
<path d="M0 0 C0.99 0.33 1.98 0.66 3 1 C1.35 2.98 -0.3 4.96 -2 7 C-2.66 6.01 -3.32 5.02 -4 4 C-2.68 2.68 -1.36 1.36 0 0 Z " fill="#92959E" transform="translate(519,802)"/>
<path d="M0 0 C0.9883378 3.41557916 0.73118909 5.5268518 0 9 C0.33 9.66 0.66 10.32 1 11 C0.01 11.33 -0.98 11.66 -2 12 C-3.12377697 8.69564916 -2.89554742 6.9493138 -1.5625 3.75 C-1.27503906 3.04359375 -0.98757813 2.3371875 -0.69140625 1.609375 C-0.46324219 1.07828125 -0.23507812 0.5471875 0 0 Z " fill="#676B75" transform="translate(377,788)"/>
<path d="M0 0 C0.66 0.99 1.32 1.98 2 3 C-0.55991624 5.01136276 -3.04590299 6.62845496 -6 8 C-4.55746343 4.63408134 -2.66735273 2.48952921 0 0 Z " fill="#848790" transform="translate(603,698)"/>
<path d="M0 0 C0.66 0.33 1.32 0.66 2 1 C2 1.99 2 2.98 2 4 C1.34 4 0.68 4 0 4 C-0.28875 4.969375 -0.5775 5.93875 -0.875 6.9375 C-2 10 -2 10 -4 11 C-3.52269162 9.5410574 -3.04308958 8.08286504 -2.5625 6.625 C-2.29566406 5.81289063 -2.02882813 5.00078125 -1.75390625 4.1640625 C-1 2 -1 2 0 0 Z " fill="#60798A" transform="translate(274,445)"/>
<path d="M0 0 C0.66 0 1.32 0 2 0 C2.66 0.66 3.32 1.32 4 2 C4.515625 2.45375 5.03125 2.9075 5.5625 3.375 C7.20273182 5.2291751 7.58422558 6.58850835 8 9 C4.67336597 7.89112199 4.21086541 7.28198895 2.3125 4.5 C1.87550781 3.8709375 1.43851563 3.241875 0.98828125 2.59375 C0 1 0 1 0 0 Z " fill="#49606E" transform="translate(906,356)"/>
<path d="M0 0 C0.66 0.33 1.32 0.66 2 1 C4.09821215 0.60061233 4.09821215 0.60061233 6 0 C4.36587557 1.70840281 3.13093906 2.93453047 1 4 C0.67 4.66 0.34 5.32 0 6 C-0.99 4.35 -1.98 2.7 -3 1 C-2.01 0.67 -1.02 0.34 0 0 Z " fill="#576D7D" transform="translate(793,957)"/>
<path d="M0 0 C2.60608273 2.5162178 4.89381685 5.05134359 7 8 C6.67 8.66 6.34 9.32 6 10 C2.64888166 7.76592111 1.18446044 6.73784176 0.1875 2.75 C0.125625 1.8425 0.06375 0.935 0 0 Z " fill="#787B85" transform="translate(585,850)"/>
<path d="M0 0 C0.99 0.33 1.98 0.66 3 1 C1.02 3.31 -0.96 5.62 -3 8 C-3.66 7.67 -4.32 7.34 -5 7 C-4.54625 6.401875 -4.0925 5.80375 -3.625 5.1875 C-2.36704087 3.49409348 -1.17015276 1.75522914 0 0 Z " fill="#727681" transform="translate(521,761)"/>
<path d="M0 0 C1.125 3.75 1.125 3.75 0 6 C-1.97522846 7.04808041 -3.97481509 8.0520411 -6 9 C-4.47291037 5.56404834 -2.40072955 2.88087546 0 0 Z " fill="#797C85" transform="translate(572,450)"/>
<path d="M0 0 C0.88492145 2.47778006 1.11637742 3.66056586 0.25 6.1875 C-1 8 -1 8 -4 9 C-2.94124926 5.59687262 -1.99097846 2.98646769 0 0 Z " fill="#9B9DA5" transform="translate(362,924)"/>
<path d="M0 0 C0.33 0 0.66 0 1 0 C1.125 5.75 1.125 5.75 0 8 C-0.99 8 -1.98 8 -3 8 C-2.37240135 5.07120629 -1.41377341 2.63904371 0 0 Z " fill="#93969D" transform="translate(347,882)"/>
<path d="M0 0 C0 3 0 3 -2.5 5.6875 C-3.325 6.450625 -4.15 7.21375 -5 8 C-5.66 7.34 -6.32 6.68 -7 6 C-4.69 4.02 -2.38 2.04 0 0 Z " fill="#333944" transform="translate(426,755)"/>
<path d="M0 0 C0.66 0 1.32 0 2 0 C2.33 3.3 2.66 6.6 3 10 C0.31252242 6.41669656 -0.54686384 5.19150947 -1 1 C-0.67 0.67 -0.34 0.34 0 0 Z " fill="#878A95" transform="translate(754,576)"/>
<path d="M0 0 C1.32 0.66 2.64 1.32 4 2 C-1.17578125 5.22265625 -1.17578125 5.22265625 -3 6 C-3.99 5.67 -4.98 5.34 -6 5 C-5.38125 4.731875 -4.7625 4.46375 -4.125 4.1875 C-1.7004767 3.04443152 -1.7004767 3.04443152 0 0 Z " fill="#797D87" transform="translate(398,946)"/>
<path d="M0 0 C0 3.57575896 -1.08840607 5.05295935 -3 8 C-3.66 6.68 -4.32 5.36 -5 4 C-3.35 2.68 -1.7 1.36 0 0 Z " fill="#444854" transform="translate(398,860)"/>
<path d="M0 0 C0.66 0 1.32 0 2 0 C1.38461538 5.53846154 1.38461538 5.53846154 -0.5625 7.875 C-1.036875 8.24625 -1.51125 8.6175 -2 9 C-2 7.35 -2 5.7 -2 4 C-1.34 4 -0.68 4 0 4 C0 2.68 0 1.36 0 0 Z " fill="#668494" transform="translate(966,792)"/>
<path d="M0 0 C1.5 1 1.5 1 3 3 C3.27345479 5.71846235 3.13491285 8.25677199 3 11 C0.43383368 7.15075052 0.44902324 4.5650696 0 0 Z " fill="#E4E5E8" transform="translate(758,532)"/>
<path d="M0 0 C2.4375 1.0625 2.4375 1.0625 5 3 C5.8125 6.6875 5.8125 6.6875 6 10 C3.61405803 8.80702902 3.16265153 7.85642735 1.875 5.5625 C1.52179687 4.94503906 1.16859375 4.32757813 0.8046875 3.69140625 C0 2 0 2 0 0 Z " fill="#4A5F6F" transform="translate(937,398)"/>
<path d="M0 0 C0 0.99 0 1.98 0 3 C-4.455 4.485 -4.455 4.485 -9 6 C-3.2 0 -3.2 0 0 0 Z " fill="#526776" transform="translate(428,263)"/>
<path d="M0 0 C1.093125 0.0825 2.18625 0.165 3.3125 0.25 C0.10913178 3.08374881 -2.46837253 3.7705537 -6.6875 4.25 C-4.79150483 0.68106792 -4.16790733 0.28256999 0 0 Z " fill="#6D717D" transform="translate(508.6875,959.75)"/>
<path d="M0 0 C1.093125 0.0825 2.18625 0.165 3.3125 0.25 C0.10913178 3.08374881 -2.46837253 3.7705537 -6.6875 4.25 C-4.79150483 0.68106792 -4.16790733 0.28256999 0 0 Z " fill="#6E737D" transform="translate(528.6875,951.75)"/>
<path d="M0 0 C1.32 0.33 2.64 0.66 4 1 C2.35 2.65 0.7 4.3 -1 6 C-1.33 5.34 -1.66 4.68 -2 4 C-1.0625 1.875 -1.0625 1.875 0 0 Z " fill="#A8ABB2" transform="translate(359,859)"/>
<path d="M0 0 C0.99 0.66 1.98 1.32 3 2 C-2.75 5.875 -2.75 5.875 -5 7 C-3.70700306 4.11562221 -2.34058637 2.12780579 0 0 Z " fill="#587181" transform="translate(908,841)"/>
<path d="M0 0 C0.66 0 1.32 0 2 0 C2 1.65 2 3.3 2 5 C2.66 5 3.32 5 4 5 C4 5.66 4 6.32 4 7 C2.68 6.67 1.36 6.34 0 6 C0 4.02 0 2.04 0 0 Z " fill="#838690" transform="translate(621,813)"/>
<path d="M0 0 C1.32 0.33 2.64 0.66 4 1 C1.69 2.65 -0.62 4.3 -3 6 C-3.66 5.67 -4.32 5.34 -5 5 C-2.75 2.4375 -2.75 2.4375 0 0 Z " fill="#3E4450" transform="translate(469,816)"/>
<path d="M0 0 C0.66 0.33 1.32 0.66 2 1 C1.67 1.99 1.34 2.98 1 4 C-1.47739354 4.90837763 -3.33579484 5 -6 5 C-4.02 3.35 -2.04 1.7 0 0 Z " fill="#7D7F88" transform="translate(498,796)"/>
<path d="M0 0 C0.66 0.33 1.32 0.66 2 1 C0.35 2.98 -1.3 4.96 -3 7 C-3.99 6.34 -4.98 5.68 -6 5 C-4.02 3.35 -2.04 1.7 0 0 Z " fill="#A0A2AA" transform="translate(506,790)"/>
<path d="M0 0 C0.33 0.66 0.66 1.32 1 2 C1.66 2 2.32 2 3 2 C3.33 1.34 3.66 0.68 4 0 C4 1.65 4 3.3 4 5 C3.01 5.33 2.02 5.66 1 6 C0.67 4.02 0.34 2.04 0 0 Z " fill="#6A6E77" transform="translate(759,594)"/>
<path d="M0 0 C0.66 0.33 1.32 0.66 2 1 C2.625 4.0625 2.625 4.0625 3 7 C1.68 6.34 0.36 5.68 -1 5 C-0.67 3.35 -0.34 1.7 0 0 Z " fill="#567181" transform="translate(988,448)"/>
</svg>
